<?xml version="1.0" standalone="no"?>
<svg version="1.1" id="Layer_1" xmlns="http://www.w3.org/2000/svg" xmlns:xlink="http://www.w3.org/1999/xlink" x="0px" y="0px" width="595.28px" height="595.28px" viewBox="0 0 595.28 595.28" enable-background="new 0 0 595.28 595.28" xml:space="preserve">
<path id="color_x5F_2" fill="#42d110" d="M209.456,332.376c-0.156,0.104-0.313,0.204-0.469,0.307
	c0.151-0.118,0.305-0.246,0.455-0.362C209.447,332.34,209.451,332.358,209.456,332.376z M228.985,321.546
	c-1.144,0.375-2.33,0.809-3.562,1.314c0.083,0.047,0.166,0.094,0.248,0.141C226.766,322.486,227.871,322.003,228.985,321.546z
	 M166.91,382.204c-0.526,2.766-0.819,4.701-0.819,4.701l1.091,2.48C166.917,386.989,166.827,384.587,166.91,382.204z
	 M245.986,323.134c-0.851-1.228-1.7-2.457-2.551-3.684c-0.341-0.023-0.716-0.039-1.108-0.051c-0.254,0.18-0.572,0.316-0.921,0.36
	c-11.063,1.376-21.304,7.669-30.404,13.747c-3.387,2.262-6.703,4.616-9.984,7.018c0.019,0.385-0.758,0.878-1.476,1.088
	c-3.161,2.333-6.297,4.7-9.433,7.069c-4.172,3.458-7.326,5.991-9.78,8.007c-13.784,14.433-13.219,36.664-2.943,53.729
	c11.283-0.935,22.526-2.481,33.41-5.547c-3.653-5.191-6.771-11.598-5.413-18.095c1.172-5.604,4.616-10.214,8.951-13.847
	c8.536-7.15,19.065-11.557,29.636-15.176c4.234-1.721,7.618-3.06,8.974-3.594c-4.779-5.818-6.063-13.703,1.318-19.11
	c-0.179-0.236-0.346-0.46-0.477-0.649C251.192,330.641,248.588,326.888,245.986,323.134z M389.946,449.322
	c0.01-0.015,0.019-0.03,0.028-0.046c-0.255-0.108-0.508-0.22-0.762-0.33C389.486,449.087,389.729,449.212,389.946,449.322z
	 M388.592,410.809c-0.172-0.135-0.342-0.27-0.502-0.403c-0.11-0.092-0.234-0.203-0.354-0.308
	c-13.973-11.472-24.342-26.779-34.949-41.929l-0.462-0.616c-0.686,0.087-1.291-0.024-1.175-0.431
	c0.073-0.256,0.16-0.524,0.253-0.799l-15.059-20.078c-3.185-3.773-6.524-7.392-10.1-10.771c-0.159-0.15-0.17-0.316-0.087-0.479
	c-2.731-1-4.881-2.979-6.644-5.352l-0.425-0.238c0,0-0.215,0.043-0.575,0.117c-0.191,0.107-0.449,0.211-0.814,0.295
	c-7.774,1.774-14.799,5.922-21.507,10.104c-5.47,3.409-8.989,8.135-13.122,12.927c-1.116,1.293-2.3,2.559-3.564,3.719
	c0.136,0.02,0.26,0.048,0.373,0.084c0.661-0.291,1.477-0.433,2.08-0.225c0.063,0.021-0.263,0.236-0.715,0.461
	c0.198-0.047,0.397-0.092,0.596-0.138c0.714-0.556,35.509,36.489,38.771,39.897c9.208,9.622,18.336,19.17,29.012,27.229
	c12.791,9.655,26.755,17.313,41.414,23.703c5.384-8.535,11.444-16.662,16.594-25.326
	C400.526,419.24,394.257,415.347,388.592,410.809z M302.424,303.151c0.263-0.295,0.87-0.476,1.433-0.508
	c-1.436-3.258-2.27-6.668-1.49-9.859c0.899-3.682,3.844-6.574,6.707-8.914c1.132-0.926,2.874-2.168,4.789-3.213
	c-12.249-3.313-8.412-26.281-6.894-34.897c1.564-8.876,3.821-17.725,7.049-26.149c1.866-4.869,3.967-10.927,8.102-14.404
	c0.33-0.277,0.755-0.381,1.158-0.361c0.002-0.004,0.003-0.007,0.005-0.011c-2.375-0.866-4.776-1.671-7.184-2.463
	c-3.226,2.386-5.892,5.058-8.094,7.97c-1.29,1.883-2.631,4.107-3.747,6.564c-1.727,3.799-3.631,9.92-5.067,14.94
	c-0.495,2.661-0.869,5.39-1.151,8.171c-0.049,0.48-1.044,0.764-1.854,0.858c-6.217,3.224-13.729,4.587-20.628,4.667
	c-6.615,0.078-14.862-0.517-19.322-6.107c-0.125-0.156-0.091-0.324,0.035-0.485c-0.429-0.122-0.726-0.425-0.652-0.951
	c2.099-14.917,5.27-31.688,15.601-43.296c-1.369,0.244-2.736,0.499-4.099,0.771c-0.027,0.02-0.047,0.039-0.077,0.06
	c-8.64,5.791-12.472,16.759-14.705,26.458c-2.067,8.98-3.134,18.146-3.721,27.336c-1.287,20.125-7.618,40.74-4.604,60.979
	c3.031,4.379,6.053,8.764,9.086,13.142c0.909,1.312,1.815,2.626,2.725,3.938c0.013-0.003,0.025-0.008,0.038-0.01
	c6.302-1.303,14.539-0.265,20.731,1.745C288.675,323.831,293.902,312.701,302.424,303.151z M256.551,328.438
	c0.014-0.013,0.025-0.021,0.04-0.033c0.133-0.115,0.38-0.205,0.709-0.275c-0.297,0.033-0.595,0.067-0.885,0.111
	C256.46,328.307,256.505,328.372,256.551,328.438z M209.442,332.32c-0.15,0.116-0.304,0.244-0.455,0.362
	c0.156-0.103,0.313-0.203,0.469-0.307C209.451,332.358,209.447,332.34,209.442,332.32z M228.985,321.546
	c-1.144,0.375-2.33,0.809-3.562,1.314c0.083,0.047,0.166,0.094,0.248,0.141C226.766,322.486,227.871,322.003,228.985,321.546z
	 M166.91,382.204c-0.526,2.766-0.819,4.701-0.819,4.701l1.091,2.48C166.917,386.989,166.827,384.587,166.91,382.204z
	 M245.986,323.134c-0.851-1.228-1.7-2.457-2.551-3.684c-0.341-0.023-0.716-0.039-1.108-0.051c-0.254,0.18-0.572,0.316-0.921,0.36
	c-11.063,1.376-21.304,7.669-30.404,13.747c-3.387,2.262-6.703,4.616-9.984,7.018c0.019,0.385-0.758,0.878-1.476,1.088
	c-3.161,2.333-6.297,4.7-9.433,7.069c-4.172,3.458-7.326,5.991-9.78,8.007c-13.784,14.433-13.219,36.664-2.943,53.729
	c11.283-0.935,22.526-2.481,33.41-5.547c-3.653-5.191-6.771-11.598-5.413-18.095c1.172-5.604,4.616-10.214,8.951-13.847
	c8.536-7.15,19.065-11.557,29.636-15.176c4.234-1.721,7.618-3.06,8.974-3.594c-4.779-5.818-6.063-13.703,1.318-19.11
	c-0.179-0.236-0.346-0.46-0.477-0.649C251.192,330.641,248.588,326.888,245.986,323.134z M389.946,449.322
	c0.01-0.015,0.019-0.03,0.028-0.046c-0.255-0.108-0.508-0.22-0.762-0.33C389.486,449.087,389.729,449.212,389.946,449.322z
	 M388.592,410.809c-0.172-0.135-0.342-0.27-0.502-0.403c-0.11-0.092-0.234-0.203-0.354-0.308
	c-13.973-11.472-24.342-26.779-34.949-41.929l-0.462-0.616c-0.686,0.087-1.291-0.024-1.175-0.431
	c0.073-0.256,0.16-0.524,0.253-0.799l-15.059-20.078c-3.185-3.773-6.524-7.392-10.1-10.771c-0.159-0.15-0.17-0.316-0.087-0.479
	c-2.731-1-4.881-2.979-6.644-5.352l-0.425-0.238c0,0-0.215,0.043-0.575,0.117c-0.191,0.107-0.449,0.211-0.814,0.295
	c-7.774,1.774-14.799,5.922-21.507,10.104c-5.47,3.409-8.989,8.135-13.122,12.927c-1.116,1.293-2.3,2.559-3.564,3.719
	c0.136,0.02,0.26,0.048,0.373,0.084c0.661-0.291,1.477-0.433,2.08-0.225c0.063,0.021-0.263,0.236-0.715,0.461
	c0.198-0.047,0.397-0.092,0.596-0.138c0.714-0.556,35.509,36.489,38.771,39.897c9.208,9.622,18.336,19.17,29.012,27.229
	c12.791,9.655,26.755,17.313,41.414,23.703c5.384-8.535,11.444-16.662,16.594-25.326
	C400.526,419.24,394.257,415.347,388.592,410.809z M302.424,303.151c0.263-0.295,0.87-0.476,1.433-0.508
	c-1.436-3.258-2.27-6.668-1.49-9.859c0.899-3.682,3.844-6.574,6.707-8.914c1.132-0.926,2.874-2.168,4.789-3.213
	c-12.249-3.313-8.412-26.281-6.894-34.897c1.564-8.876,3.821-17.725,7.049-26.149c1.866-4.869,3.967-10.927,8.102-14.404
	c0.33-0.277,0.755-0.381,1.158-0.361c0.002-0.004,0.003-0.007,0.005-0.011c-2.375-0.866-4.776-1.671-7.184-2.463
	c-3.226,2.386-5.892,5.058-8.094,7.97c-1.29,1.883-2.631,4.107-3.747,6.564c-1.727,3.799-3.631,9.92-5.067,14.94
	c-0.495,2.661-0.869,5.39-1.151,8.171c-0.049,0.48-1.044,0.764-1.854,0.858c-6.217,3.224-13.729,4.587-20.628,4.667
	c-6.615,0.078-14.862-0.517-19.322-6.107c-0.125-0.156-0.091-0.324,0.035-0.485c-0.429-0.122-0.726-0.425-0.652-0.951
	c2.099-14.917,5.27-31.688,15.601-43.296c-1.369,0.244-2.736,0.499-4.099,0.771c-0.027,0.02-0.047,0.039-0.077,0.06
	c-8.64,5.791-12.472,16.759-14.705,26.458c-2.067,8.98-3.134,18.146-3.721,27.336c-1.287,20.125-7.618,40.74-4.604,60.979
	c3.031,4.379,6.053,8.764,9.086,13.142c0.909,1.312,1.815,2.626,2.725,3.938c0.013-0.003,0.025-0.008,0.038-0.01
	c6.302-1.303,14.539-0.265,20.731,1.745C288.675,323.831,293.902,312.701,302.424,303.151z M256.551,328.438
	c0.014-0.013,0.025-0.021,0.04-0.033c0.133-0.115,0.38-0.205,0.709-0.275c-0.297,0.033-0.595,0.067-0.885,0.111
	C256.46,328.307,256.505,328.372,256.551,328.438z"></path>
<path id="color_x5F_1" d="M269.515,141.632c-2.345,3.721-9.573,13.31-3.054,16.298c0.201,0.093-1.99,1.296-2.74,0.951
	c-6.771-3.104,0.538-12.882,2.946-16.702C267.099,141.491,269.657,141.405,269.515,141.632z M279.63,143.544
	c0,0.937-0.008,1.885-0.411,2.749c-0.662,1.423,2.259,1.263,2.742,0.225c0.49-1.054,0.588-2.104,0.589-3.251
	C282.552,141.858,279.631,142.384,279.63,143.544z M262.875,144.64c0.62-0.086,1.363-0.341,1.66-0.935
	c0.57-1.141,1.089-2.291,1.5-3.5c0.304-0.894-2.579-0.507-2.888,0.4c-0.411,1.209-0.93,2.359-1.5,3.5
	C261.354,144.689,262.655,144.671,262.875,144.64z M280.865,162.89c-0.479,0.088-1.448,0.279-1.703,0.776
	c-0.13,0.255-0.264,0.531-0.451,0.751c-0.003,0.004-0.007,0.006-0.011,0.01c-0.429,0.086-0.85,0.227-1.216,0.451
	c-0.449,0.273-0.404,0.617,0.162,0.604c1.078-0.025,2.116-0.271,3.06-0.8c0.605-0.34,1.003-0.936,1.312-1.538
	C282.252,162.688,280.991,162.866,280.865,162.89z M492.034,455.76c-0.029,0.235-0.174,0.472-0.392,0.674
	c-9.596,15.276-18.586,30.952-27.699,46.517c-0.329,0.561-1.303,0.862-1.91,0.802c-10.285-1.028-20.672-2.591-31-3
	c-1.582-0.063-0.608-1.362,0.354-1.601c7.072-1.746,12.444-4.979,16.012-11.455c2.741-4.976,6.609-11.35,6.682-17.176
	c0.032-2.626,0.023-1.525-1.769-1.889c-2.266-0.457-4.532-0.906-6.801-1.35c-18.906-3.69-38.18-7.91-57.449-9.325
	c-0.025,0.05-0.053,0.098-0.078,0.147c-0.613,1.197-3.479,1.111-2.811-0.343c-0.047-0.003-0.094-0.007-0.141-0.01
	c-1.921-0.11-0.104-1.685,1.038-1.69c1.223-2.288,2.519-4.531,3.875-6.739c0.01-0.015,0.019-0.03,0.028-0.046
	c-0.255-0.108-0.508-0.22-0.762-0.33c-8.564-3.691-16.949-7.811-24.986-12.517c1.293,1.267,2.531,2.545,3.705,3.808
	c11.587,12.473,21.277,26.969,29.113,42.099c1.101-2.251,1.835-4.678,2.11-7.195c0.082-0.751,2.963-1.331,2.869-0.471
	c-0.096,0.874-0.26,1.774-0.476,2.681c0.734-0.164,1.484-0.138,1.49,0.166c0.143,7.094,2.487,15.279,11.162,14.746
	c0.212-0.014,0.981-0.016,0.822,0.406c-1.312,3.486,0.633,5.533,1.016,8.848c0.098,0.851-2.821,1.445-2.898,0.777
	c-0.283-2.455-2.466-5.215-1.516-7.74c0.483-1.284-4.16-1.366-5.309-2.053c-4.103-2.452-5.564-6.867-6.011-11.369
	c-0.546,1.295-1.206,2.555-1.979,3.729c0.563,1.539-1.004,2.838-2.633,3.195c-1.143,1.098-2.42,2.015-3.828,2.658
	c-5.511,2.52-6.869-2.031-6.826-6.477c-1.664,2.072-2.342,4.767-3.015,7.433c-0.199,0.788-3.06,1.228-2.869,0.471
	c0.186-0.734,0.378-1.443,0.586-2.13c-0.721,0.527-2.503,0.818-2.601,0.283c-0.479-2.616-0.735-5.259-0.99-7.902
	c-0.565,3.454-1.091,6.916-2.128,10.273c-0.057,0.183-0.258,0.342-0.527,0.473c0.446,1.866-4.536,2.629-5.607,1.838
	c-0.003-0.002-0.005-0.004-0.008-0.006c-0.114-0.084-0.159-0.182-0.175-0.285c-0.002,0.001-0.004,0.002-0.006,0.002
	c-0.125-0.518-1.797-2.637-2.449-3.576c-0.065-0.094-0.131-0.188-0.195-0.281c-0.164,0.804-1.83,1.484-2.585,0.898
	c-1.555-1.205-2.969-2.537-4.297-3.95c0.308,1.556,0.561,3.142,0.866,4.739c0.257,1.346-2.647,2.089-2.898,0.777
	c-0.119-0.623-0.228-1.245-0.334-1.865c-0.518,0.185-1.068,0.276-1.375,0.156c-3.19-1.248-6.256-2.402-9.078-4.076
	c0.139,0.952,0.143,1.873,0.026,2.756c-0.226,1.718-0.903,3.293-1.927,4.686c-0.285,0.389-0.597,0.761-0.932,1.119
	c0.495,0.218,0.807,0.488,0.941,0.793c-0.021,0.367-0.051,0.736-0.102,1.113c-0.664,1.249-2.911,2.414-4.444,1.882
	c-0.357-0.124-0.696-0.283-1.023-0.464c-0.983,0.477-2.028,0.879-3.12,1.195c-1.728,0.5-2.081-0.869-0.367-1.367
	c0.744-0.216,1.433-0.488,2.084-0.793c-0.548-0.447-1.063-0.94-1.557-1.434c-13.941-13.937-37.762-57.05-15.686-71.973
	c-4.15-5.987-8.294-11.979-12.429-17.976c-7.766-11.266-15.53-22.536-23.123-33.919c-2.291-3.435-4.586-6.87-6.771-10.373
	c-0.399-0.639-1.364-1.801-1.889-2.887c-2.462,1.369-5.201,2.16-8.291,1.945c-5.133-0.355-10.368-3.473-13.801-7.654
	c-4.779-5.818-6.063-13.703,1.318-19.11c-0.179-0.236-0.346-0.46-0.477-0.649c-2.594-3.759-5.198-7.512-7.8-11.266
	c-0.851-1.228-1.7-2.457-2.551-3.684c-0.179-0.259-0.357-0.517-0.536-0.774c-0.065,0.245-0.272,0.513-0.572,0.724
	c-0.254,0.18-0.572,0.316-0.921,0.36c-11.063,1.376-21.304,7.669-30.404,13.747c-3.387,2.262-6.703,4.616-9.984,7.018
	c0.019,0.385-0.758,0.878-1.476,1.088c-3.161,2.333-6.297,4.7-9.433,7.069c-1.633,1.233-3.267,2.466-4.905,3.692
	c-1.79,1.34-3.413,2.783-4.875,4.314c-13.784,14.433-13.219,36.664-2.943,53.729c11.283-0.935,22.526-2.481,33.41-5.547
	c-3.653-5.191-6.771-11.598-5.413-18.095c1.172-5.604,4.616-10.214,8.951-13.847c8.536-7.15,19.065-11.557,29.636-15.176
	c2.802-0.96,5.606-1.867,8.377-2.752c1.761-0.563,2.218,1.256,0.485,1.809c-11.726,3.744-24.269,7.805-34.183,15.348
	c-4.653,3.541-9.41,8.291-10.343,14.351c-1.004,6.523,1.696,12.304,5.415,17.499c1.77-0.548,3.53-1.13,5.277-1.768
	c1.132-0.413,2.504,0.305,1.843,0.956c0.085,0.089,0.157,0.191,0.197,0.321c4.75,15.26,12.008,30.002,15.813,45.495
	c3.495,14.234,5.281,29.081,12.068,42.269c0.644,1.25-1.831,2.235-2.558,1.391c-0.244,0.156-0.55,0.26-0.91,0.26
	c-27.667,0-55.333,0-83,0c-0.847,0-1.214-0.38-1.229-0.813c-0.854,0.251-3.052,0.371-1.456-0.359
	c12.209-5.586,25.363-8.908,37.414-14.85c3.506-1.728,7.052-3.609,10.109-6.068c1.367-1.1-2.279-4.985-2.948-5.936
	c-2.862-4.064-5.724-8.129-8.588-12.191c-6.245-8.856-12.488-17.714-18.824-26.506c-0.094-0.131-0.189-0.262-0.283-0.393
	c-0.055,0.041-0.116,0.081-0.18,0.121l0.623,0.969c0,0-1.209-0.115-2.943-0.326c-23.329-1.118-46.708-0.451-70.051-1.018
	c-1.948-0.049,0.243-1.444,1.187-1.422c18.472,0.45,36.964,0.152,55.438,0.543c-1.733-0.687-3.315-1.664-4.61-3.072
	c-4.559-4.957-8.711-11.018-12.093-16.792c-2.919-4.983-5.443-10.271-8.036-15.434c-2.032-4.046-4.252-8.505-4.248-13.149
	c0.005-6.745,4.128-12.205,4.269-18.837c0.312-14.628-5.523-29.661-9.861-43.401c-3.461-10.963-7.687-22.263-9.814-33.74
	c-0.4,5.35-0.463,10.762,0.504,15.965c0.807,4.34,2.062,8.578,3.918,12.592c0.749,1.618,1.527,3.045,1.248,4.873
	c-0.559,3.656-2.772,6.879-4.732,9.93c-0.54,0.84-1.091,1.697-1.639,2.568c0.553-0.123,1.099-0.101,1.313,0.174
	c7.106,9.119,0.955,15.857-3.191,24.316c0.068,0.068,0.127,0.139,0.197,0.208c0.264,0.263-0.138,0.621-0.713,0.882
	c-0.067,0.146-0.135,0.291-0.201,0.438c-0.144,0.323-0.621,0.57-1.148,0.714c-0.193,0.323-0.295,0.488-0.295,0.488
	s-0.29-0.098-0.712-0.347c-0.509-0.001-0.869-0.14-0.731-0.451c0.006-0.015,0.013-0.028,0.02-0.042
	c-1.164-0.934-2.609-2.785-2.608-6.187c-2.816-7.795,2.925-16.057,7.473-23.312c2.891-4.611,5.082-8.223,2.822-13.477
	c-3.719-8.645-5.079-17.414-4.464-26.796c1.115-17.005,4.126-35.536,16.292-48.489c7.533-8.021,20.366-17.461,32.084-14.018
	c0.535,0.158,0.027,0.564-0.67,0.875c1.08,0.061,1.952,0.121,2.553,0.166c3.566-3.546,6.002-8.435,10.428-11.018
	c-0.395-0.595-0.745-1.129-0.971-1.547c-2.724-5.033-5.464-10.059-8.188-15.092c-5.899-10.898-11.95-21.771-17.225-32.991
	c-0.65-1.384,4.978-3.292,5.796-1.553c5.275,11.22,11.322,22.095,17.225,32.991c2.85,5.262,5.719,10.513,8.56,15.779
	c0.261,0.484,0.704,1.139,1.179,1.859c1.826,0.691,3.51,2.012,4.975,3.545c0.004,0.004,0.005,0.009,0.009,0.014
	c2.059-0.41,4.073-0.509,5.901,0.223c4.061,1.623,3.781,5.822,1.642,8.653c1.817-0.254,3.572,0.199,4.288,2.235
	c0.761,2.166,0.438,4.602-0.544,6.711c1.636,1.624,2.586,3.666,2.711,5.688c0.258-0.339,0.77-0.658,1.356-0.716
	c15.374-1.518,30.909,0.012,46.25-1.911c1.659-13.879,5.202-28.975,15.217-37.712c-10.67,2.313-21.24,5.055-32.153,6.247
	c-13.175,1.438-27.201,2.682-38.883,9.481c-1.405,0.818-2.962-0.635-1.261-1.625c11.695-6.809,25.756-8.293,38.963-9.734
	c16.05-1.754,31.375-6.639,47.307-8.973c1.974-0.289,1.279,1.811-0.279,2.039c-0.265,0.039-0.528,0.084-0.792,0.124
	c-11.249,11.349-14.452,28.532-16.595,43.764c-0.018,0.128-0.066,0.244-0.126,0.354c0.226,0.019,0.409,0.084,0.509,0.209
	c7.499,9.398,26.877,6.654,36.302,1.484c1.648-15.075,6.092-28.706,19.037-37.818c0.077-0.055,0.199-0.105,0.345-0.154
	c-6.206-2.04-12.404-4.109-18.177-7.225c-0.361-0.194-0.413-0.437-0.289-0.674c-0.515-0.003-0.952-0.21-1.022-0.695
	c-0.253-1.752-0.361-3.512-0.34-5.264c-4.757,2.926-11.697,4.475-10.763,10.986c0.152,1.061-2.761,1.73-2.897,0.777
	c-0.117-0.818-0.133-1.563-0.063-2.247c-0.284-0.054-0.465-0.183-0.424-0.413c0.263-1.49,0.216-3.055-0.33-4.436
	c-0.271,0.68-0.54,1.357-0.786,2.023c-0.354,0.961-3.251,1.328-2.896,0.367c1.232-3.344,5.417-11.103,1.69-13.969
	c-2.484-1.91-5.387-3.107-8.249-4.328c-4.653-1.984-11.503-4.375-13.567-9.56c-5.275-13.247,5.28-27.895,6.513-41.353
	c-3.424-0.867-6.758-1.996-9.897-3.555c-5.104-2.534-15.737-9.902-13.688-17.075c1.458-5.104,7.968-5.724,12.432-5.28
	c6.175,0.613,12.634,2.689,17.419,6.78c1.24-2.513,2.542-4.932,3.809-7.18c1.821-3.232,3.475-6.481,7.251-7.413
	c3.282-0.81,6.932-0.271,10.217,0.233c6.258,0.959,12.425,2.389,18.628,3.634c4.545,0.911,10.316,0.785,14.565,2.596
	c3.882,1.654,5.59,5.066,5.658,9.199c0.016,0.914-0.71,5.013-0.366,6.804c8.266,2.616,17.039,8.415,19.176,16.994
	c1.833,7.36,0.448,19.377-8.014,22.261c-4.142,1.412-9.106,0.938-12.602-1.889c-2.231-1.806-3.914-4.125-5.61-6.416
	c0.171,6.557-6.242,12.075-11.305,15.882c-0.045,0.034-0.115,0.068-0.194,0.102c0.998,0.979,1.577,2.308,1.658,3.827
	c0.331,6.222-5.67,9.475-11.138,9.552c-0.018,0.042-0.029,0.083-0.055,0.128c-2.992,5.332-3.801,11.445-2.934,17.453
	c0.028,0.192-0.01,0.37-0.088,0.533c0.298-0.033,0.576-0.011,0.777,0.098c13.343,7.199,31.478,8.088,42.903,18.607
	c4.3,3.959,7.579,8.623,10.237,13.656c0.159-0.072,0.318-0.141,0.479-0.204l0.076-0.302h0.809c5.94-1.721,12.494,2.447,16.884,6.916
	c10.226,10.408,14.301,25.469,20.923,38.195c0.01,0.018,0.006,0.039,0.005,0.06c0.065,0.024,0.131,0.048,0.188,0.085
	c9.292,5.999,12.467,25.22,24.902,25.85c0.689,0.035,0.902,0.273,0.845,0.565c0.134,0.028,0.252,0.071,0.348,0.13
	c0.49-0.193,1.007-0.348,1.215-0.348c8.28,0.006,17.754-0.648,25.648,2.394c2.33,0.898,4.297,2.167,5.972,3.708
	c11.468-3.055,19.33-11.229,27.004-19.785c0.307-0.342,2.641-1.369,2.874-0.658c2.466,7.532-1.561,16.08-5.399,22.432
	c-4.065,6.727-9.013,13.387-15.222,18.301c0.409,1.712,0.769,3.438,1.04,5.169c0.035,0.028,0.063,0.058,0.088,0.089
	c8.162,0.182,13.375,7.902,19.686,12.156c0.899,0.605-0.326,1.397-0.926,1.549c-6.845,1.728-13.222,5.309-20.393,5.574
	c-0.207,0.008-0.377-0.009-0.525-0.037c-4.264,10.803-8.028,22.594,1.708,30.764c0.1-0.893,2.16-1.557,2.824-0.732
	c6.917,8.587,1.317,18.653-8.034,22.444c-7.766,3.147-14.089,3.622-19.813-1.671c-3.773,2.484-5.873,6.207-7.618,10.441
	c-0.285,0.691-2.71,1.396-2.814,0.299c-0.088-0.936-0.224-1.854-0.347-2.778c-1.925,1.167-3.205,2.857-4.339,4.979
	c-0.396,0.738-3.031,1.396-2.822,0.061c0.25-1.6,0.22-3.203,0.323-4.806c-1.022,0.708-1.871,1.607-2.501,2.745
	c-0.418,0.615-3.202,1.383-2.822,0.061c2.326-8.088,7.648-16.287,16.164-18.229c-2.721-2.609-5.667-4.873-9.108-6.877
	c1.646,11.785-11.451,13.932-22.538,12.892c0.741,3.765,5.257,5.473,7.515,1.334c0.383-0.702,3.013-0.839,2.85-0.541
	c-2.755,5.051-13.52,6.35-13.374-1.157c-2.504-0.373-4.812-0.887-6.69-1.463c-3.507-1.077-8.063-1.994-10.32-5.191
	c-1.748-2.475-0.873-6.347,0.053-9.463c-2.421,2.129-5.599,3.413-8.659,4.338c10.997,14.661,23.292,27.88,40.736,35.629
	c1.602-2.801,3.101-5.662,4.436-8.621c0.564-1.25,3.492-1.161,2.789,0.398c-0.134,0.297-0.28,0.586-0.418,0.881
	c0.048,0.024,0.096,0.047,0.139,0.079c23.038,17.378,49.606,29.873,75.72,41.858c0.29,0.133,0.46,0.296,0.547,0.471
	C492.054,455.486,492.084,455.606,492.034,455.76z M329.099,117.034c-0.604-0.207-1.208-0.39-1.813-0.564
	c-0.227,0.021-0.424,0.002-0.563-0.075c-0.059-0.032-0.108-0.079-0.157-0.125c-19.602-5.269-39.327,5.849-59.017,8.218
	c9.673,1.936,19.917,2.093,29.575,3.931c0.61-0.357,1.746-0.712,2.155-0.579c6.477,2.1,15.529,5.038,20.072,10.893
	c2.474,2.455,4.455,5.176,6.947,8.092c5.299,6.201,14.862,8.647,18.294-0.818C349.225,133.229,341.492,121.292,329.099,117.034z
	 M266.063,122.642c19.91-1.812,39.345-13.239,59.503-8.943c0.185,0.039,0.375,0.092,0.561,0.135c0.09-1.178,0.35-2.418,0.371-2.971
	c0.119-3.076,0.041-7.139-2.462-9.387c-3.31-2.971-8.244-2.656-12.409-3.418c-5.021-0.919-10.002-2.037-15.008-3.038
	c-4.61-0.922-9.42-2.072-14.146-2.06c-4.779,0.012-7.31,7.345-9.051,11.181C270.772,109.979,267.447,116.303,266.063,122.642z
	 M254.317,120.171c2.218,1.102,4.507,1.982,6.847,2.709c0.7-0.003,1.398-0.02,2.096-0.049c0.978-4.425,2.744-9.057,4.798-13.496
	c-5.031-5.112-14.943-8.918-22.063-7.139C235.222,104.886,250.108,118.081,254.317,120.171z M294.917,185.696
	c0.333-3.813,1.375-7.537,3.29-10.949c0.184-0.328,0.58-0.557,1.02-0.68c0.223-0.574,1.092-1.221,1.875-1.178
	c4.094,0.223,8.203-2.195,8.151-6.709c-0.016-1.418-0.552-3.02-1.868-3.74c-1.74-0.954-3.836-0.058-5.447,0.861
	c0.826,1.186-1.877,2.294-2.674,1.244c-7.075-9.314-14.383-24.524-3.77-33.769c-4.342-0.827-8.793-1.348-13.258-1.873
	c-5.373-0.632-10.962-1.226-16.391-2.37c-0.76,7.106-3.509,13.846-5.442,20.699c-1.859,6.593-4.792,16.936,1.304,22.266
	c5.129,4.482,12.038,5.521,17.585,9.25c4.247,2.855,3.635,6.86,2.182,10.957c0.205,0.016,0.375,0.07,0.475,0.179
	c0.833,0.899,1.321,1.944,1.564,3.053C286.632,190.104,291.942,188.796,294.917,185.696z M379.272,372.881l-0.015,0.024l-0.016,0.04
	C379.252,372.923,379.264,372.902,379.272,372.881z M387.07,359.345c-0.942-0.182-1.958-0.232-3.017-0.204L387.07,359.345z
	 M374.901,379.798c-0.374,0.252-0.901,0.697-1.644,1.439c-0.047,0.047-0.089,0.084-0.135,0.13
	C373.766,380.903,374.361,380.381,374.901,379.798z M415.7,382.021c-4.517-2.408-9.186-4.785-13.007-8.156
	c-3.524-3.109-5.86-6.927-7.623-11.079c-0.036,0.011-0.072,0.017-0.108,0.024c0.025,0.07,0.054,0.135,0.077,0.207
	c0.264,0.8-2.613,1.637-2.898,0.777c-0.087-0.263-0.183-0.511-0.285-0.746c-8.225,1.698-11.959,13.186-12.973,20.611
	c-0.977,7.15,5.529,8.57,11.333,10.006C400.011,396.087,420.291,397.743,415.7,382.021z M392.795,345.176
	c0.078,0.257,0.158,0.515,0.235,0.772c-0.06-0.273-0.112-0.515-0.16-0.738C392.845,345.198,392.82,345.187,392.795,345.176z
	 M433.731,396.69c-0.2-0.221-0.401-0.428-0.601-0.664c-1.092-1.299-2.188-2.525-3.313-3.689c-6.48,0.754-10.818,6.43-13.309,12.293
	c0.715-0.416,1.487-0.775,2.355-1.065c0.502-0.167,1.813-0.147,1.683,0.69c-0.119,0.762-0.168,1.523-0.205,2.287
	c1.269-1.223,2.771-2.176,4.646-2.844c0.371-0.133,1.637-0.439,1.969,0.088C428.658,400.922,430.796,398.534,433.731,396.69z
	 M456.552,378.267c-0.53,0.097-1.054,0.039-1.302-0.271c-1.229-1.545-5.025-0.568-6.619-0.186c-1.81,0.434-3.818,0.939-5.487,1.908
	c1.884,0.251,3.377,1.297,4.808,2.68c0.517,0.5-2.146,1.574-2.723,1.016c-0.771-0.747-1.598-1.533-2.571-2.012
	c-1.717-0.844-2.688,0.09-3.749,1.421c-0.141,0.176-0.507,0.334-0.927,0.446c-1.688,2.418-2.705,5.563-1.937,8.453
	c1.215,4.57,5.159,6.891,9.407,8.304c0.214,0.071,0.362,0.159,0.458,0.256c0.005-0.001,0.009-0.001,0.014-0.001
	c10.038-1.282,21.934-10.061,15.373-20.295c-0.687,0.341-1.692,0.657-2.077,0.396C458.227,379.708,457.342,379.002,456.552,378.267z
	 M460.725,329.839c0.631,5.317,0.37,10.639-1.644,15.666c-0.006,0.014-0.011,0.027-0.017,0.041c0.066-0.009,0.133-0.02,0.202-0.021
	c6.104-0.226,11.648-3.021,17.418-4.805C471.833,336.929,466.932,330.531,460.725,329.839z M450.842,303.11
	c2.905,2.949,4.846,6.788,6.157,11.021c0.709,2.286,1.408,4.638,2.024,7.023c5.089-4.567,9.385-10.333,12.767-16.168
	c3.412-5.887,7.112-13.23,5.832-20.229C469.997,292.981,461.965,300.022,450.842,303.11z M424.978,297.407
	c3.067,0.08,6.88,0.287,10.62,0.781C432.133,297.593,428.536,297.431,424.978,297.407z M390.174,272.541
	c-4.579,6.304-3.357,15.577,0.814,21.882c5.573,8.421,14.266,10.672,21.924,3.185c0.025-0.024,0.059-0.046,0.088-0.068
	C401.477,295.272,398.713,279.324,390.174,272.541z M379.285,252.353c-0.477-1.044-0.935-2.111-1.396-3.186
	c-3.585,4.959-8.334,8.438-14.56,8.623c1.725,5.953,3.287,11.971,4.125,18.095c0.856,6.261,0.899,11.909-2.214,17.612
	c-4.974,9.109-13,16.301-21.507,22.264c0.136,0.056,0.244,0.137,0.305,0.256c4.406,8.594-4.568,19.477-13.725,19.67
	c8.405,8.226,15.536,17.749,22.418,27.496c3.119-6.216,9.523-13.395,15.899-7.997c1.321,1.118,2.597,1.849,3.858,2.335l3.598,0.781
	c3.282,0.226,6.654-0.608,10.64-0.574c3.283,0.028,5.797,0.803,7.355,3.236c0.084-0.003,0.173,0.002,0.258,0
	c-2.624-6.914-3.961-14.572-6.659-21.36c-3.639,0.157-7.25-0.677-10.64-2.845c-6.447-4.124-10.982-10.365-16.561-15.485
	c-0.977-0.897,0.261-1.918,1.221-1.989c11.617-0.866,35.081-12.021,38.837,6.232c0.297,1.443-2.605,2.201-2.898,0.777
	c-3.103-15.08-21.959-7.195-33.269-5.16c7.075,6.957,13.761,15.957,23.271,16.107c0.598-0.358,1.526-0.471,2.063-0.114
	c1.803-0.21,3.703-0.726,5.727-1.636c1.523-0.686,3.12,1.018,1.316,1.828c-1.969,0.886-3.979,1.543-6,1.928
	c0.47,1.191,0.898,2.393,1.301,3.601c0.36-0.069,0.691-0.073,0.9,0.043c6.295,3.495,19.219,6.041,22.09,13.626
	c2.554,6.75-2.669,18.758,4.41,23.374c0.25,0.163-0.195,0.515-0.807,0.786c3.018,1.656,6.007,3.371,8.772,5.444
	c1.912,1.435,3.743,3.678,5.649,5.963c-0.012-0.083-0.033-0.161-0.043-0.245c-0.452-3.846,0.893-7.356,3.382-10.265
	c0.358-0.419,1.204-0.592,1.845-0.505c0.275-0.203,0.564-0.386,0.861-0.552c0.039-0.119,0.131-0.255,0.303-0.409
	c2.645-2.391,6.485-3.509,9.916-4.148c1.214-0.227,3.009-0.586,4.704-0.569c-4.509-6.468-3.304-14.59-0.303-22.854
	c1.789-4.929,4.761-10.119,4.63-15.502c-0.038-1.564-0.172-3.149-0.368-4.74c-2.257,6.215-0.378,15.902-7.664,17.998
	c-7.936,2.283-9.568-8.475-11.638-13.703c-1.469-3.711-4.675-6.873-7.228-9.865c-3.24-3.797-6.547-7.554-9.595-11.51
	c-2.793-3.627-8.762-10.402-7.865-15.863c-7.376,6.246-17.43,6.92-23.996-1.402c-6.007-7.611-8.235-19.17-1.435-26.932
	c-0.205-0.021-0.361-0.09-0.431-0.223C384.991,264.74,382.116,258.56,379.285,252.353z M312.125,311.21
	c4.03,6.246,6.78,14.83,12.275,19.905c8.809,8.134,21.27-4.025,16.998-13.751c-0.793,0.531-1.588,1.057-2.384,1.568
	c-0.009,0.006-0.021,0.01-0.03,0.016c0.384,0.83-2.232,1.699-2.745,1.004c-7.48-10.15-15.081-22.949-16.599-35.658
	c-0.073-0.621,1.009-1.098,1.873-1.171c-0.652-2.858-2.557-3.238-4.815-2.405c-0.186,0.113-0.39,0.2-0.604,0.246
	c-3.712,1.662-8.124,6.15-9.521,8.252C302.068,295.993,308.442,305.501,312.125,311.21z M324.265,205.196
	c0.385,0.331,0.456,0.854-0.204,1.408c-3.892,3.273-5.895,9.617-7.571,14.214c-2.807,7.698-4.978,15.66-6.4,23.731
	c-1.342,7.613-6.183,32.9,6.492,34.265c0.377,0.04,0.624,0.153,0.771,0.306c3.004-0.961,5.81-0.745,6.866,2.488
	c5.622-3.684,11.401-7.645,9.303-15.4c-2.784-10.295-8.097-19.514-8.381-30.414c-0.023-0.934,2.881-1.432,2.898-0.777
	c0.164,6.303,1.819,12.199,4.026,18.07c1.818,4.836,5.099,10.701,4.818,16.012c-0.376,7.13-6.961,10.457-12.351,14.027
	c-0.048,0.423-0.704,0.773-1.385,0.934c-0.121,0.066-0.295,0.128-0.502,0.179c1.613,11.74,8.354,23.584,15.242,33.169
	c10.066-6.533,22.236-15.607,26.088-27.391c2.341-7.164,0.61-14.896-1.1-22.046c-1.805-7.546-4.137-14.935-6.293-22.384
	c-1.617-5.588-3.678-11.937-6.536-17.846c-0.817,0.137-1.618,0.117-1.267-0.217c0.268-0.254,0.54-0.484,0.814-0.703
	c-3.319-6.609-7.683-12.578-13.644-16.158C332.229,208.427,328.291,206.705,324.265,205.196z M299.19,231.846
	c-0.495,2.661-0.869,5.39-1.151,8.171c-0.049,0.48-1.044,0.764-1.854,0.858c-6.217,3.224-13.729,4.587-20.628,4.667
	c-6.615,0.078-14.862-0.517-19.322-6.107c-0.125-0.156-0.091-0.324,0.035-0.485c-0.429-0.122-0.726-0.425-0.652-0.951
	c2.099-14.917,5.27-31.688,15.601-43.296c-1.369,0.244-2.736,0.499-4.099,0.771c-0.027,0.02-0.047,0.039-0.077,0.06
	c-8.64,5.791-12.472,16.759-14.705,26.458c-2.067,8.98-3.134,18.146-3.721,27.336c-1.287,20.125-7.618,40.74-4.604,60.979
	c3.031,4.379,6.053,8.764,9.086,13.142c0.909,1.312,1.815,2.626,2.725,3.938c0.013-0.003,0.025-0.008,0.038-0.01
	c6.302-1.303,14.539-0.265,20.731,1.745c12.083-5.29,17.31-16.42,25.832-25.97c0.263-0.295,0.87-0.476,1.433-0.508
	c-1.436-3.258-2.27-6.668-1.49-9.859c0.899-3.682,3.844-6.574,6.707-8.914c1.132-0.926,2.874-2.168,4.789-3.213
	c-12.249-3.313-8.412-26.281-6.894-34.897c1.564-8.876,3.821-17.725,7.049-26.149c1.866-4.869,3.967-10.927,8.102-14.404
	c0.33-0.277,0.755-0.381,1.158-0.361c0.013,0,0.025,0,0.038,0.001c-0.011-0.004-0.022-0.008-0.033-0.012
	c-2.375-0.866-4.776-1.671-7.184-2.463c-3.226,2.386-5.892,5.058-8.094,7.97C303.289,216.577,300.672,223.899,299.19,231.846z
	 M243.375,236.146l3.426,0.156c0.02-0.181,0.039-0.36,0.059-0.541C245.699,235.909,244.538,236.034,243.375,236.146z
	 M197.872,241.649c0.444,0.141,0.699,0.404,0.598,0.822c-0.097,0.4,2.256,3.933,2.858,4.894c2.409,3.851,4.915,7.641,7.434,11.419
	c7.36,11.039,14.862,21.982,22.385,32.91c3.107,4.514,6.232,9.016,9.349,13.522c-0.778-10.95,0.606-22.056,2.215-33.104
	c-0.32-0.636-0.828-1.581-1.463-2.564c-0.525,0.08-0.989,0.029-1.105-0.255c-3.119-7.632-13.926-3.444-17.16-10.711
	c-2.829-6.355-1.506-15.165,2.176-20.938c0.15-0.236,0.525-0.412,0.956-0.529l0.136-0.238c-8.629,0.076-17.269-0.027-25.859,0.82
	c-0.472,0.047-0.772-0.011-0.946-0.123C199.385,239.035,198.877,240.448,197.872,241.649z M168.544,219.18
	c-0.01,0.111-0.097,0.247-0.305,0.417c-0.083,0.067-0.149,0.148-0.229,0.218c-0.426,0.501-0.871,0.987-1.323,1.466
	c-3.535,4.956-1.94,13.396,0.883,18.2c1.288,2.19,2.819,3.693,4.519,4.696c0.869,0.406,1.751,0.785,2.616,1.131
	c5.408,1.59,11.981-0.45,17.983-1.932c0.007-0.004,0.013-0.006,0.02-0.01c0.002-0.009,0-0.02,0.001-0.027
	c0.172-0.709,1.267-1.277,2.457-1.58c2.215-2.175,1.652-5.621-0.029-8.149c-0.229,0.269-0.465,0.526-0.716,0.765
	c-0.511,0.484-1.223,0.73-1.925,0.746c-0.3,0.008-1.256-0.193-0.74-0.684c0.761-0.723,1.415-1.602,1.922-2.562
	c-0.142-0.214,0.02-0.459,0.333-0.675c0.545-1.251,0.831-2.611,0.749-3.953c-0.146-2.381-1.283-4.549-3.8-3.018
	c-0.225,0.137-0.586,0.223-0.955,0.26c-1.11,0.197-2.805-0.251-1.315-1.018c2.269-1.168,3.817-3.838,2.536-6.352
	c-1.188-2.331-3.056-2.451-5.407-2.057c-3.762,0.632-7.46,2.022-11.292,2.168c-1.951,0.074,0.053-1.611,1.125-1.652
	c0.344-0.013,0.696-0.049,1.051-0.094c-0.087-0.998-0.794-2.313-1.586-3.574c-1.144,0.832-2.14,1.82-3.05,2.906
	C170.867,216.249,169.732,217.738,168.544,219.18z M117.407,269.805c0.069-0.001,0.137,0.007,0.204,0.017l0.065-1.826
	C117.582,268.598,117.489,269.2,117.407,269.805z M166.887,412.778l1.068,0.113c0.076-0.038,0.151-0.076,0.233-0.112
	c-0.361-0.006-0.612-0.081-0.761-0.202C167.247,412.651,167.062,412.72,166.887,412.778z M175.921,424.812
	c-0.531-0.734-1.062-1.471-1.594-2.204l1.324,2.06C175.788,424.699,175.875,424.749,175.921,424.812z M176.2,425.198
	c-0.082-0.113-0.164-0.228-0.246-0.341c0.028,0.07,0.018,0.151-0.025,0.24l0.059,0.092
	C176.059,425.192,176.129,425.194,176.2,425.198z M218.142,404.294c-0.001-0.004,0-0.007-0.002-0.01
	c-13.025,4.48-26.592,6.613-40.27,7.803c-0.536,0.68-2.211,1.053-2.622,0.4c-0.036-0.057-0.069-0.117-0.105-0.174
	c-1.586,0.123-3.173,0.234-4.76,0.338c1.747,1.11,3.529,4.658,4.559,6.059c3.877,5.272,7.68,10.6,11.472,15.932
	c8.247,11.599,16.42,23.248,24.625,34.875c0,0.109-0.048,0.193-0.144,0.254c-13.444,10.814-31.155,14.445-46.811,21.109
	c27.123,0,54.247,0,81.369,0c-5.984-12.468-7.819-26.102-11.095-39.443C230.41,435.355,223.068,420.121,218.142,404.294z
	 M196.839,341.265c-3.244-0.727-6.668-1.551-8.713-4.252c-2.737,5.373-6.986,9.996-11.484,14.303
	c-2.265,2.168-5.02,4.244-7.521,6.483c-1.712,1.892-3.436,3.942-5.03,6.106c-0.326,0.441-0.612,0.854-0.9,1.265
	c-2.013,4.341-2.021,9.245-0.897,13.968c1.331,5.591,3.542,10.844,5.861,16.061c-0.431-1.922-0.757-3.865-0.973-5.813
	c-0.265-2.396-0.354-4.799-0.272-7.182c0.392-11.294,4.823-22.121,14.646-29.422C186.673,348.979,191.72,345.071,196.839,341.265z
	 M242.479,318.067c-6.349-9.165-12.693-18.332-19.006-27.521c-7.33-10.669-14.658-21.344-21.797-32.142
	c-2.126-3.216-4.25-6.439-6.276-9.72c-0.078,4.894-2.996,9.836-8.03,11.26c-1.583,0.447-2.949,0.418-4.582,0.304
	c-3.976-0.28-5.773,1.778-8.483,3.786c-3.464,2.568-7.207,4.939-11.034,6.937c-15.004,7.831-29.639,7.548-45.039,1.704
	c2.717,27.4,18.737,52.332,20.561,79.916c0.162,2.441,0.262,4.978-0.172,7.4c-0.547,3.054-2.188,5.639-2.994,8.617
	c-2.683,9.909,2.052,17.658,6.514,26.188c3.013,5.761,6.241,11.146,9.805,16.409l6.145,0.646c3.084,0,6.169,0,9.254,0
	c0.214-0.396,0.755-0.779,1.426-0.82c1.795-0.109,3.592-0.23,5.388-0.362c-0.569-0.991-1.103-2.007-1.611-3.04
	c-0.759,0.479-2.072,0.518-2.404-0.336c-3.682-9.449-9.346-18.591-11.017-28.713c-0.151-0.914-0.253-1.798-0.323-2.664
	c-0.677-0.023-2.561-0.379-5.646-3.055c-7.7-5.349-12.257-16.843-11.682-25.593c0.551-8.394,5.191-9.192,12.407-7.776
	c2.204,0.432,5.235,0.996,7.478,0.043c0.078-0.047,0.156-0.082,0.233-0.131c0.556-0.354,1.024-0.721,1.446-1.093
	c0.211-0.249,0.41-0.52,0.578-0.837c1.291-2.446,1.17-5.079,1.195-7.766c0.033-3.635,0.595-7.154,3.041-9.611
	c0.774-1.566,1.93-2.693,3.74-2.693c0.314,0,0.606,0.033,0.91,0.049c6.183-1.834,12.305,1.686,15.666,7.105
	c-0.338-10.351-4.847-20.091-6.524-30.266c-0.231-1.402,2.673-2.139,2.897-0.777c1.777,10.775,7.27,21.459,6.629,32.556
	c-0.188,3.253-0.959,6.247-2.149,9.039c0.595-0.145,1.204-0.11,1.417,0.228c1.863,2.957,5.232,3.704,8.452,4.416
	c3.313-2.433,6.67-4.805,10.1-7.072c0.156-0.103,0.313-0.203,0.469-0.307c-0.005-0.018-0.009-0.036-0.014-0.056
	c-0.009-0.036-0.02-0.079-0.029-0.119c-0.283-0.003-0.509-0.071-0.605-0.241c-2.347-4.164-5.846-11.463,0.576-13.1
	c0.205-0.197,0.437-0.354,0.706-0.455c0.895-0.336,2.091-0.219,3.408,0.162c4.151,0.316,8.335,2.269,11.925,4.293
	c0.083,0.047,0.166,0.094,0.248,0.141c1.094-0.515,2.199-0.998,3.313-1.455c4.112-1.684,8.37-2.945,12.789-3.495
	C242.075,318.014,242.302,318.026,242.479,318.067z M324.316,422.423c0.521-0.199,1.055-0.39,1.609-0.567
	c6.235-1.997,12.321-1.411,18.042,0.692c-9.907-7.973-18.523-17.078-27.313-26.211c-8.02-8.332-16.133-16.572-24.2-24.857
	c-3.131-3.214-6.265-6.426-9.352-9.684c1.957,3.099,3.979,6.156,6.014,9.203C300.652,388.272,312.458,405.366,324.316,422.423z
	 M364.3,489.744c-1.979-2.853-3.963-5.702-5.948-8.55c-12.159-17.443-24.329-34.881-36.451-52.352
	c-10.102,8.742-4.367,26.428,0.287,37.064c3.113,7.115,6.906,13.99,11.391,20.338c1.712,2.422,4.322,6.835,7.125,8.855
	c0.935-1.256,1.518-2.695,1.721-4.248c0.268-2.047-0.119-4.286-1.283-6.559c-0.004-0.008-0.003-0.015-0.007-0.022
	c-0.384-0.853,2.265-1.431,2.805-0.923c3.401,3.195,7.367,4.762,11.578,6.397c-0.57-3.247-1.268-6.399-3.255-9.21
	c-0.855-1.209,1.892-2.281,2.656-1.262C357.748,483.045,360.61,486.774,364.3,489.744z M326.732,425.905
	c4.511,6.483,9.026,12.963,13.538,19.443c7.827,11.244,15.667,22.479,23.501,33.717c2.37,3.4,4.741,6.8,7.101,10.207
	c0.251,0.363,0.613,0.794,0.989,1.254c1.289-5.422,1.645-11.034,3.296-16.381c0.18-0.582,2.747-1.362,2.882-0.629
	c0.95,5.199,1.033,10.504,1.952,15.708c1.049-3.142,2.569-5.724,5.746-7.575c0.195-0.113,2.361-0.771,2.302-0.133
	c-0.344,3.676,0.029,11.915,5.096,6.498c0.09-0.097,0.17-0.201,0.259-0.299c-0.183-0.143-0.345-0.313-0.457-0.534
	c-7.313-14.531-16.357-28.619-27.108-40.847C357.367,436.712,341.301,420.005,326.732,425.905z M391.036,447.579
	c5.384-8.535,11.444-16.662,16.594-25.326c-7.104-3.013-13.373-6.906-19.038-11.444c-0.289-0.231-0.568-0.476-0.855-0.711
	c-13.973-11.472-24.342-26.779-34.949-41.929c-0.145-0.207-0.289-0.413-0.434-0.619c-0.01,0.001-0.019,0.002-0.028,0.003
	c-0.686,0.087-1.291-0.024-1.175-0.431c0.073-0.256,0.16-0.524,0.253-0.799c0.01-0.027,0.02-0.056,0.029-0.084
	c-4.823-6.859-9.733-13.648-15.088-19.994c-3.185-3.773-6.524-7.392-10.1-10.771c-0.159-0.15-0.17-0.316-0.087-0.479
	c-2.731-1-4.881-2.979-6.644-5.352c-0.531-0.714-1.028-1.463-1.495-2.232c-3.083-5.079-5.603-10.396-8.792-15.425
	c-1.464-2.307-3.299-5.07-4.747-8.003c-4.693,5.346-8.28,11.561-13.036,16.836c-4.276,4.744-9.312,7.961-15.276,10.203
	c-1.047,0.394-2.341-0.163-1.898-0.766c-5-1.635-11.557-2.73-16.97-2.127c-0.297,0.033-0.595,0.067-0.885,0.111
	c0.045,0.065,0.091,0.131,0.136,0.197c1.131,1.633,2.265,3.265,3.392,4.902c0.698,1.014,2.261,2.562,2.557,3.796
	c0.447,1.871-4.534,2.633-5.607,1.841c-0.004-0.002-0.007-0.006-0.011-0.008c-0.113-0.083-0.158-0.18-0.175-0.281
	c-0.001,0-0.002,0-0.003,0.001c-0.133-0.555-0.809-1.501-1.511-2.425c-3.879,4.004-4.243,9.729-1.19,14.756
	c3.597,5.924,12.732,12.98,19.9,8.326c0.272-0.178,0.53-0.371,0.793-0.559c-0.015-0.157-0.018-0.311,0.016-0.449
	c0.172-0.711,1.274-1.281,2.469-1.583c5.396-4.995,8.95-11.969,15.368-15.97c7.799-4.861,15.881-9.726,24.932-11.793
	c1.326-0.303,1.74,0.138,1.035,0.529c-0.191,0.107-0.449,0.211-0.814,0.295c-7.774,1.774-14.799,5.922-21.507,10.104
	c-5.47,3.409-8.989,8.135-13.122,12.927c-1.116,1.293-2.3,2.559-3.564,3.719c0.136,0.02,0.26,0.048,0.373,0.084
	c0.661-0.291,1.477-0.433,2.08-0.225c0.063,0.021-0.263,0.236-0.715,0.461c0.198-0.047,0.397-0.092,0.596-0.138
	c0.714-0.556,35.509,36.489,38.771,39.897c9.208,9.622,18.336,19.17,29.012,27.229C362.413,433.531,376.377,441.188,391.036,447.579
	z M488.854,456.474c-25.66-11.784-51.739-24.108-74.456-41.049c-1.053,2.101-2.181,4.157-3.361,6.184
	c-0.045,0.078-0.093,0.156-0.139,0.235c-6.863,11.726-15.479,22.412-21.927,34.406c21.454,1.53,42.938,6.313,63.963,10.538
	c0.368,0.074,0.736,0.148,1.104,0.222c0.455-0.063,0.919-0.051,1.372,0.04c3.116,0.625,1,6.434,0.452,7.98
	c-2.095,5.918-4.731,12.591-8.93,17.365c-2.941,3.345-6.571,5.441-10.582,6.893c8.485,0.566,16.992,1.748,25.438,2.627
	C470.688,486.704,479.485,471.399,488.854,456.474z M427.551,353.267c0.016-0.365,0.125-0.662,0.357-0.945
	c0.087-0.105,0.25-0.275,0.32-0.334c0.084-0.066,0.171-0.131,0.259-0.191c-0.017,0.012,0.42-0.242,0.218-0.137
	c0.439-0.229,1.179-0.8,0.719-1.365c-0.428-0.525-1.42-0.419-1.949-0.143c-1.27,0.664-2.775,1.822-2.846,3.393
	C424.566,354.942,427.498,354.44,427.551,353.267z M441.944,386.873c-0.59-0.646-3.331,0.386-2.709,1.064
	c0.41,0.449,0.585,1.047,1,1.5c0.59,0.646,3.331-0.386,2.709-1.064C442.534,387.924,442.359,387.326,441.944,386.873z
	 M403.254,404.244c-0.631-0.257-1.481-0.013-2.045,0.3c-1.914,1.064-3.949,0.943-5.955,0.2c-0.644-0.237-1.471-0.026-2.045,0.3
	c-0.331,0.188-0.934,0.781-0.283,1.022c3.354,1.242,6.923,0.937,10.045-0.8C403.322,405.071,403.886,404.503,403.254,404.244z
	 M399.508,410.657c1.82-0.041,3.432-0.656,5.134-1.234c0.292-0.1,1.253-0.637,0.8-1.063c-0.469-0.441-1.396-0.145-1.903,0.027
	c-0.94,0.32-1.858,0.744-2.866,0.766c-0.645,0.016-1.501,0.223-1.92,0.763C398.334,410.454,399.105,410.665,399.508,410.657z
	 M404.141,277.794c0.535,0.826,3.24-0.248,2.898-0.777c-1.951-3.01-3.33-6.326-5.593-9.139c-0.52-0.645-3.291,0.336-2.713,1.055
	C400.926,271.655,402.251,274.876,404.141,277.794z M400.437,259.105c2.244,1.378,4.17,3.231,5.204,5.688
	c0.427,1.012,3.278,0.126,2.898-0.777c-1.163-2.761-3.276-4.765-5.796-6.312C401.938,257.21,399.259,258.382,400.437,259.105z
	 M315.036,427.339c-24.31-0.037-48.597-1.519-72.907-1.555c-0.576-0.001-3.292,1.131-1.893,1.133
	c24.31,0.036,48.597,1.518,72.907,1.555C313.72,428.473,316.435,427.341,315.036,427.339z" fill="#282828"></path>
</svg>