<?xml version="1.0" standalone="no"?>
<svg version="1.1" id="Layer_1" xmlns="http://www.w3.org/2000/svg" xmlns:xlink="http://www.w3.org/1999/xlink" x="0px" y="0px" width="595.28px" height="595.28px" viewBox="0 0 595.28 595.28" enable-background="new 0 0 595.28 595.28" xml:space="preserve">
<path id="color_x5F_2" fill="#42d110" d="M192.566,150.666c2.745-0.291,5.589-0.673,8.287-1.166
	c-0.662,0.207-1.201,0.385-1.546,0.533C198.484,150.386,195.754,150.572,192.566,150.666z M146.979,111.648
	c-11.46,0.109-23.84,3.854-31.036,13.397c-7.158,9.495-5.348,19.705-4.92,30.622c1.89-1.524,4.205-2.626,6.562-3.501
	c3-1.387,7.5-2.491,11.576-3.288c2.57-0.596,5.154-1.139,7.748-1.625c0.396-0.793,2.892-1.048,2.847-0.607
	c-0.003,0.033-0.009,0.063-0.013,0.096c0.786-0.139,1.571-0.285,2.358-0.42c10.839-1.861,21.776-3.285,32.721-4.461
	c-1.167-7.568-2.778-16.252-7.904-22.254C161.87,113.696,154.589,111.576,146.979,111.648z M179.927,150.494
	c4.539-0.02,35.225-0.754,31.027-8.864c-3.572-1.188-8.084-0.635-11.753-0.466c-6.13,0.283-12.248,0.803-18.353,1.427
	c-0.774,0.079-1.551,0.159-2.327,0.237c0.294,2.587,0.631,5.169,0.969,7.751C179.677,150.527,179.835,150.494,179.927,150.494z
	 M210.974,139.701l-0.378,0.023c0.378,0.051,0.749,0.12,1.117,0.195C211.33,139.635,210.974,139.701,210.974,139.701z
	 M177.754,141.365c0.044,0.008,0.075,0.032,0.116,0.045l-0.179-0.504c0.021,0.135,0.044,0.271,0.064,0.406
	C177.759,141.33,177.753,141.348,177.754,141.365z M179.265,385.225c0.086-0.045,0.267-0.132,0.25-0.121
	c0.207-0.135,0.408-0.278,0.598-0.438c0.101-0.084,0.198-0.186,0.297-0.281c-0.588,0.232-1.336,0.398-2.256,0.389
	c0.316,0.211,0.739,0.412,0.992,0.438C179.199,385.217,179.235,385.221,179.265,385.225z M179.29,385.229
	c0.001-0.002,0-0.002,0.003-0.004c-0.004,0.002-0.004,0.002-0.008,0.003C179.287,385.229,179.288,385.229,179.29,385.229z
	 M205.936,462.692c0.236,5.423-0.006,11.21,0.9,16.583l-116.414,3.865c0.01-22.114,0.214-44.234,1.134-66.331
	c0.725-17.411,1.034-35.86,5.357-52.915c4.069,1.727,8.126,3.235,11.857,4.66c0.511,0.195,1.363-0.078,1.876-0.478l1.687,0.717
	c1.609,5.621,4.647,11.053,9.628,14.203c6.044,3.821,14.86,1.089,21.495,2.966c0.542,0.153,1.322-0.136,1.827-0.536
	c4.742,0,9.484,0,14.227,0c0.861,0,1.421-0.573,1.489-1.123c0.475,0.046,1.131,0.093,1.923,0.11
	c-0.205,0.355-0.116,0.711,0.537,0.891c3.407,0.938,6.988-0.416,9.686-2.573c1.077,2.273,2.701,4.061,5.468,3.747
	c1.645-0.187,3.042-0.965,4.202-2.041c0.675,0.006,1.35,0.018,2.024,0.029c-0.709,0.472-1.068,1.201-0.044,1.518
	c1.946,0.6,3.896,0.379,5.514-0.451c0.079,0.102,0.202,0.184,0.419,0.201c2.014,0.162,3.927-0.195,5.544-0.962
	c2.324,0.054,4.648,0.078,6.973,0.044c-0.344,4.153,0.301,8.748,0.4,12.734c0.271,10.928,0.641,21.854,1.027,32.777
	C205.055,441.117,205.467,451.906,205.936,462.692z M171.511,416.502c-3.213,9.831-11.87,16.344-16.848,25.184
	c-5.528,9.815-7.623,23.096-8.485,34.15c-0.11,1.409,2.83,0.936,2.924-0.266c0.929-11.92,3.383-25.759,9.736-36.059
	c4.999-8.105,12.555-13.967,15.597-23.275C174.84,414.996,171.888,415.35,171.511,416.502z M176.013,223.732
	c-1.772-0.527-3.558-1.022-5.35-1.505c3.805,15.253,8.114,30.3,12.427,45.417c0.043,0.15-0.102,0.313-0.345,0.462
	c0.503,0.884,1.009,1.765,1.553,2.615c0.339,0.529,0.08,1.026-0.392,1.357c2.365-0.747,4.837-1.062,7.224-0.95l1.271-0.182
	c-2.371-7.686-5.57-15.1-7.701-22.859C182.385,239.655,180.081,231.514,176.013,223.732z M178.64,221.699l-8.5-2l0.013,0.072
	c2.879,0.738,5.77,1.466,8.606,2.303L178.64,221.699z M176.64,256.699l0.844,2.205c-0.401-1.413-0.802-2.826-1.201-4.238
	L176.64,256.699z M101.687,323.643c1.13,4.916,4.561,7.582,8.336,10.359c-0.198-9.613-0.492-19.225-0.512-28.84
	c0-0.259,0.138-0.481,0.348-0.663c-0.652-0.626-0.069-1.926,1.226-1.926c1.915,0,3.83,0,5.745,0c0.003-0.035,0-0.067,0.008-0.104
	c1.191-5.904,5.297-10.361,10.503-13.135c-2.414-3.159-1.049-7.012,1.465-10.124c-0.355-1.349-0.687-2.704-1.028-4.056l-0.637-0.955
	l-6.32-27.807c-2.308-8.818-5.53-17.353-7.825-26.164c-1.698,0.855-3.44,1.655-5.207,2.428c0.335,17.697,9.622,39.42,9.127,58.352
	c0.083,0.437,0.16,0.846,0.225,1.191c0.352,1.875-0.127,4.164-1.057,6.567c-1.578,7.902-5.538,15.086-13.47,20.973
	c-0.3,0.222-0.669,0.31-1.031,0.309l-0.178,0.218C100.942,314.791,100.692,319.317,101.687,323.643z"></path>
<path id="color_x5F_1" d="M162.87,175.544c1.479,0.072,3.333,0.194,3.503-1.702c0.096-1.073-0.146-2.154-0.495-3.166
	c-0.792-2.291-1.934-4.427-3.02-6.586c-0.425-0.845,2.394-1.778,2.897-0.777c1.43,2.844,4.144,6.803,3.515,10.168
	c-0.635,3.402-4.692,3.852-7.527,3.714C159.783,177.099,161.767,175.49,162.87,175.544z M149.468,179.695
	c-1.155-0.595-2.177-1.405-3.333-2c-0.588-0.302-1.522-0.014-2.047,0.291c-0.396,0.23-0.871,0.749-0.274,1.057
	c1.156,0.594,2.178,1.404,3.333,2c0.588,0.303,1.523,0.013,2.047-0.291C149.591,180.521,150.064,180.004,149.468,179.695z
	 M144.269,164.505c2.325-1.11,4.674-1.523,6.915,0.006c1.003,0.685,3.58-0.711,2.248-1.619c-3.22-2.197-7.076-1.589-10.418,0.006
	C141.217,163.755,142.829,165.191,144.269,164.505z M168.768,163.21c0.693,0.172,1.528-0.071,2.049-0.549
	c0.952-0.872,2.404-0.737,3.611-0.738c0.669-0.001,1.525-0.202,1.905-0.818c0.357-0.58-0.301-0.958-0.813-0.957
	c-2.526,0.002-5.097,0.136-7.056,1.93C167.996,162.506,168.17,163.062,168.768,163.21z M146.855,153.466c2,0,4,0,6,0
	c1.682,0,2.201-2.193,0.238-2.193c-2,0-4,0-6,0C145.411,151.272,144.892,153.466,146.855,153.466z M124.477,168.725
	c-1.667-0.763-3.577-0.748-5.374-0.749c-0.633-0.001-1.513,0.481-1.597,1.17c-0.092,0.76,0.773,0.949,1.339,0.949
	c1.34,0.001,2.72,0.016,3.959,0.583C124.011,171.229,126.157,169.494,124.477,168.725z M246.34,359.152
	c1.253,4.712,3.381,12.586,0.545,17.165c-2.907,4.693-8.443,6.872-13.845,6.759c-2.43-0.051-7.283-0.457-8.544-3.095
	c-3.212,3.235-9.701,4.096-13.618,4.456c-1.595,0.146-3.188,0.232-4.782,0.295c-0.329,4.44,0.376,9.363,0.487,13.6
	c0.283,10.75,0.64,21.498,1.024,32.245c0.383,10.712,0.788,21.423,1.261,32.132c0.231,5.214-0.005,10.777,0.887,15.938
	c0.159,0.92-2.755,1.6-2.897,0.777c-0.008-0.049-0.013-0.1-0.021-0.148c-0.907-5.373-0.665-11.16-0.9-16.583
	c-0.469-10.786-0.881-21.575-1.263-32.364c-0.387-10.924-0.756-21.85-1.027-32.777c-0.099-3.986-0.744-8.581-0.4-12.734
	c-2.325,0.034-4.649,0.01-6.973-0.044c-1.617,0.767-3.53,1.124-5.544,0.962c-0.217-0.018-0.34-0.1-0.419-0.201
	c-1.617,0.83-3.567,1.051-5.514,0.451c-1.024-0.316-0.665-1.046,0.044-1.518c-0.674-0.012-1.349-0.023-2.024-0.029
	c-1.16,1.076-2.558,1.854-4.202,2.041c-2.767,0.313-4.391-1.474-5.468-3.747c-2.697,2.157-6.278,3.512-9.686,2.573
	c-0.653-0.18-0.742-0.535-0.537-0.891c0.341-0.592,1.495-1.187,2.23-0.984c3.178,0.874,6.979-1.945,8.517-4.577
	c0.626-1.072,1.331-2.474,0.93-3.755c-0.359-1.148-1.379-2.604-2.66-1.725c-4.105,2.821-6.451,8.499-10.927,10.781
	c0.002,0.049-0.006,0.1-0.013,0.149c-0.068,0.55-0.628,1.123-1.489,1.123c-4.742,0-9.484,0-14.227,0
	c-0.505,0.4-1.285,0.689-1.827,0.536c-6.635-1.877-15.451,0.855-21.495-2.966c-4.981-3.15-8.019-8.582-9.628-14.203
	c-0.324-1.133-0.596-2.272-0.808-3.403c-1.64-8.744-1.268-17.621-1.407-26.473c-0.015-0.914-0.037-1.828-0.054-2.741
	c-0.468,0.128-0.91,0.167-1.127,0.005c-4.296-3.203-9.139-6.077-10.15-11.763c-1.353-7.613,0.292-15.331,0.667-22.995
	c-8.179,4.478-19.441-0.396-28.327-6.594c-2.758,14.588-5.13,32.025,1.078,45.627c4.396,9.629,13.563,15.709,23.304,20.265
	c0.899-0.396,2.39-0.472,2.231,0.082c-0.079,0.275-0.146,0.556-0.223,0.831c4.398,1.955,8.854,3.634,12.99,5.213
	c0.821,0.314,0.646,0.834,0.137,1.229c-0.513,0.399-1.366,0.673-1.876,0.478c-3.73-1.425-7.788-2.934-11.857-4.66
	c-4.323,17.055-4.632,35.504-5.357,52.915c-0.92,22.097-1.124,44.217-1.134,66.331c0,0.279-0.001,0.56-0.001,0.84
	c0,0.93-2.897,1.392-2.897,0.777c0.004-22.889,0.168-45.793,1.199-68.661c0.791-17.548,1.129-36.173,5.73-53.274
	c-9.806-4.395-19.309-10.219-24.069-19.382c-7.74-14.9-4.844-34.501-1.757-50.433c-2.661-2.025-5.021-4.102-6.918-5.977
	c-1.024,0.475-2.7,0.295-2.111-0.794c8.116-15.013,6.557-34.056,17.764-47.609c7.177-8.679,17.622-12.277,27.616-16.657
	c0.291-0.473,0.983-0.738,1.609-0.716c2.018-0.91,4.008-1.866,5.941-2.917c0.048-0.309,0.723-0.624,1.414-0.793
	c1.64-0.947,3.232-1.972,4.754-3.109c0.065-0.049,0.135-0.091,0.208-0.128c2.5-8.804,2.761-17.787,2.474-26.83
	c-3.134-1.483-5.693-4.282-7.703-7.386c-0.123-0.131-0.247-0.258-0.369-0.391c-0.841-0.911-1.518-2.326-2.066-3.988
	c-0.285-0.596-0.555-1.186-0.802-1.761c-1.655-3.845-4.304-10.622-2.185-15.037c-0.036-0.045-0.061-0.096-0.062-0.157
	c-0.114-6.872-1.73-14.06-0.555-20.9c1.077-6.271,4.021-11.42,8.478-15.899c7.243-7.283,18.002-11.13,28.112-11.661
	c8.061-0.423,17.415,0.209,23.522,6.216c6.496,6.39,8.587,15.685,9.942,24.394c0.021,0.135,0.044,0.271,0.064,0.406
	c0.003,0.018-0.003,0.035-0.002,0.053c0.044,0.008,0.075,0.032,0.116,0.045c0.093,0.027,0.188,0.051,0.262,0.1
	c1.479-0.152,2.957-0.302,4.436-0.446c6.572-0.641,13.171-1.257,19.775-1.433c2.612-0.07,5.528-0.275,8.253,0.094
	c0.378,0.051,0.749,0.12,1.117,0.195c0.601,0.123,1.193,0.268,1.762,0.468c0.165,0.058,0.235,0.136,0.248,0.224
	c0.01,0.013,0.025,0.021,0.033,0.035c2.682,4.6-4.35,7.292-12.903,8.854c-2.698,0.493-5.542,0.875-8.287,1.166
	c-5.349,0.569-10.301,0.803-12.951,0.879c0.598,4.592,1.168,9.186,1.432,13.809c0.39,6.832,0.777,14.53-1.958,20.979
	c-3.098,7.305-9.848,9.47-16.431,12.747c-2.825,1.406-8.444,4.091-9.055,7.742c-0.44,2.629,0.093,5.403,0.543,8.068
	c0.362-0.074,0.711-0.076,0.961,0.037c4.7,2.14,9.852,3.512,15.045,4.844c2.879,0.738,5.77,1.466,8.606,2.303
	c6.132,1.81,11.999,4.137,16.896,8.234c12.452,10.419,11.485,30.341,17.435,44.338c0.165,0.387-0.098,0.742-0.521,0.99
	c2.599,9.32,6.076,18.308,10.477,26.937c0.013,0,0.026,0,0.039,0c1.569,0,1.574,1.441,0.643,2.019
	c0.01,0.018,0.025,0.032,0.029,0.053c2.029,10.313,1.379,20.895,2,31.334c0.017,0.28-0.361,0.522-0.848,0.695
	c2.895,1.715,5.511,3.701,7.375,5.159c0.599-0.303,1.382-0.462,1.825-0.232C240.733,345.028,244.483,352.174,246.34,359.152z
	 M209.696,276.509c-0.329,0.078-0.668,0.119-0.995,0.12c-0.938,0.004-2.067-0.096-2.973,0.227c-0.818,0.292-1.617,0.638-2.419,0.973
	c1.34,2.398,1.94,5.443,1.446,9.15c-0.026,0.197-0.189,0.362-0.42,0.497c7.193,2.201,13.347,7.751,13.478,15.098
	c0.647,0,1.294,0,1.942,0C215.555,294.211,212.214,285.517,209.696,276.509z M193.089,301.979c0.03,0.221-0.105,0.422-0.325,0.595
	c7.367,0,14.734,0,22.102,0c-0.944-11.532-19.717-20.225-27.279-10.374C190.506,294.82,192.571,298.15,193.089,301.979z
	 M159.11,302.266c0.003,0.109-0.02,0.211-0.054,0.308c10.367,0,20.733,0,31.101,0c-0.494-3.251-2.4-6.319-5.063-8.843
	c-0.647,0.014-1.13-0.184-0.798-0.706c0.002-0.004,0.005-0.007,0.008-0.011c-7.715-6.643-20.678-8.85-25.224,1.143
	c-0.193,0.426-0.992,0.715-1.704,0.807C158.408,297.02,159.034,299.441,159.11,302.266z M111.084,302.573c1.915,0,3.83,0,5.745,0
	c0.003-0.035,0-0.067,0.008-0.104c1.191-5.904,5.297-10.361,10.503-13.135c-2.414-3.159-1.049-7.012,1.465-10.124
	c-0.355-1.349-0.687-2.704-1.028-4.056c-2.262-8.955-4.283-17.97-6.481-26.941c-0.149-0.609-0.316-1.214-0.475-1.82
	c-2.308-8.818-5.53-17.353-7.825-26.164c-1.698,0.855-3.44,1.655-5.207,2.428c0.335,17.697,9.622,39.42,9.127,58.352
	c-0.069,2.646-0.329,5.239-0.832,7.759c-1.578,7.902-5.538,15.086-13.47,20.973c-0.3,0.222-0.669,0.31-1.031,0.309
	c-0.052,0-0.105,0.004-0.157,0c-0.007,0.072-0.014,0.146-0.021,0.218c-0.462,4.525-0.712,9.052,0.282,13.377
	c1.13,4.916,4.561,7.582,8.336,10.359c-0.198-9.613-0.492-19.225-0.512-28.84c0-0.259,0.138-0.481,0.348-0.663
	C109.206,303.873,109.789,302.573,111.084,302.573z M148.504,274.137c0.017-0.063,0.043-0.123,0.061-0.186
	c-5.255-2.539-11.727-0.184-15.842,3.865c-2.955,2.908-4.97,6.974-2.731,10.271c4.995-1.996,10.646-2.552,15.639-1.505
	c0.518-4.869,2.898-8.623,6.245-11.228c-0.499,0.11-0.989,0.109-1.251-0.103c-0.137-0.11-0.28-0.197-0.419-0.299
	C149.296,275.217,148.271,275.006,148.504,274.137z M183.756,287.979c-0.014,0.399-0.472,0.71-1.019,0.9
	c1.142,0.593,2.23,1.266,3.246,2.017c3.96-4.094,10.112-5.179,15.961-4.029c0.989-12.553-13.085-19.594-22.699-10.851
	C182.141,278.818,183.937,282.795,183.756,287.979z M181.649,272.013c-3.536-5.525-6.709-13.33-14.974-10.88
	c-5.642,1.674-12.82,6.008-14.948,11.936c0.544,0.317,1.081,0.665,1.596,1.081c0.05,0.04,0.081,0.083,0.101,0.128
	c7.355-4.611,18.134-4.448,24.67,0.729c1.44-1.059,3.023-1.901,4.678-2.53C182.313,272.504,181.879,272.372,181.649,272.013z
	 M119.652,302.573c12.178,0,24.355,0,36.533,0c-0.004-0.035-0.015-0.066-0.016-0.104c-0.352-13.051-14.055-16.611-24.615-12.74
	c0.037,0.028,0.064,0.059,0.102,0.087c0.727,0.548-1.917,1.692-2.699,1.104c-0.012-0.009-0.023-0.02-0.035-0.028
	c-4.521,2.344-8.099,6.192-9.145,11.375C119.755,302.376,119.709,302.477,119.652,302.573z M156.653,293.703
	c4.508-8.402,15.441-9.394,24.193-5.717c-0.032-4.638-1.8-8.273-4.516-10.846c-0.351-0.019-0.54-0.115-0.349-0.32
	c-8.962-7.963-27.159-5.021-27.559,10.492c0,0.014-0.007,0.026-0.008,0.041C151.82,288.568,154.729,290.666,156.653,293.703z
	 M179.914,224.979c3.441,7.194,5.43,14.643,7.684,22.333c2.408,8.219,5.758,16.113,8.158,24.333c0.025,0.086-0.017,0.176-0.1,0.266
	c2.913,0.908,5.438,2.586,7.114,5.055c1.01-0.425,2.02-0.847,3.084-1.117c1.162-0.295,2.358-0.375,3.554-0.398
	c-0.184-0.676-0.376-1.347-0.55-2.025c-0.066-0.256,0.056-0.494,0.277-0.694c-2.557-6.978-3.844-14.324-5.795-21.491
	c-2.013-7.395-4.481-15.668-11.095-20.268C188.417,228.309,184.242,226.466,179.914,224.979z M170.663,222.228
	c3.805,15.253,8.114,30.3,12.427,45.417c0.043,0.15-0.102,0.313-0.345,0.462c0.503,0.884,1.009,1.765,1.553,2.615
	c0.339,0.529,0.08,1.026-0.392,1.357c2.365-0.747,4.837-1.062,7.224-0.95c0.457,0.021,0.913,0.053,1.362,0.106
	c-0.029-0.097-0.063-0.191-0.092-0.288c-2.371-7.686-5.57-15.1-7.701-22.859c-2.315-8.433-4.619-16.574-8.687-24.355
	C174.241,223.205,172.455,222.71,170.663,222.228z M146.979,111.648c-11.46,0.109-23.84,3.854-31.036,13.397
	c-7.158,9.495-5.348,19.705-4.92,30.622c1.89-1.524,4.205-2.626,6.562-3.501c3-1.387,7.5-2.491,11.576-3.288
	c2.57-0.596,5.154-1.139,7.748-1.625c0.396-0.793,2.892-1.048,2.847-0.607c-0.003,0.033-0.009,0.063-0.013,0.096
	c0.786-0.139,1.571-0.285,2.358-0.42c10.839-1.861,21.776-3.285,32.721-4.461c-1.167-7.568-2.778-16.252-7.904-22.254
	C161.87,113.696,154.589,111.576,146.979,111.648z M199.201,141.164c-6.13,0.283-12.248,0.803-18.353,1.427
	c-0.774,0.079-1.551,0.159-2.327,0.237c0.294,2.587,0.631,5.169,0.969,7.751c0.187-0.052,0.345-0.085,0.437-0.085
	c4.539-0.02,35.225-0.754,31.027-8.864C207.382,140.442,202.87,140.995,199.201,141.164z M121.303,215.394
	c0.132,0.078,0.245,0.185,0.328,0.324c2.518,4.275,9.918,5.256,14.349,5.61c4.529,0.363,12.931,0.796,15.538-3.955
	c-0.622-4.439-2.511-10.313,1.194-13.934c2.165-2.115,4.721-3.95,7.434-5.301c4.261-2.121,9.643-3.531,12.963-7.112
	c5.935-6.399,5.602-16.729,5.041-24.896c-0.376-5.48-1.092-10.918-1.78-16.359c-0.008,0.019-0.01,0.037-0.02,0.056
	c-0.357,0.677-1.202,0.858-1.895,0.859c-2.431,0.001-4.856,0.046-7.235,0.597c-1.778,0.412-2.289-1.411-0.489-1.828
	c2.896-0.671,5.805-0.737,8.765-0.739c0.307,0,0.61,0.144,0.787,0.365c-0.25-1.981-0.492-3.964-0.713-5.949
	c-10.074,1.038-20.206,2.159-30.153,3.938c-1.95,0.349-3.902,0.686-5.853,1.028c-1.12,6.897-5.049,11.811-9.81,16.707
	c-0.131,0.18-0.257,0.352-0.375,0.509c0.09,0.152,0.18,0.305,0.267,0.46c0.655,1.182-2.15,2.14-2.676,1.191
	c-0.035-0.063-0.073-0.128-0.108-0.191c-0.82,0.121-1.593,0.065-1.206-0.322c0.212-0.213,0.421-0.424,0.631-0.637
	c-1.119-1.763-2.733-3.67-4.754-3.978c-0.575,0.041-1.177,0.095-1.775,0.165c-1.9,0.618-3.391,2.559-4.203,4.258
	c-1.026,2.146-1.498,4.859-0.358,7.066c1.135,2.198,3.376,3.057,5.692,3.341c-0.01-0.192-0.02-0.385-0.029-0.577
	c-0.045-0.909,2.865-1.43,2.897-0.777c0.025,0.507,0.051,1.014,0.077,1.521c0.427,0.123,0.778,0.489,0.505,0.954
	c-0.109,0.186-0.263,0.322-0.435,0.438c0.141,2.75,0.276,5.497,0.366,8.238c0.174,0.125,0.154,0.281,0.014,0.443
	C124.582,196.52,124.247,206.057,121.303,215.394z M115.717,218.777c2.586,10.197,6.404,20.021,8.867,30.271
	c2.215,9.215,4.302,18.465,6.674,27.641c0.665-0.572,1.348-1.089,2.021-1.527c4.678-3.052,10.742-4.901,16.024-3.183
	c2.879-6.3,10.455-11.435,16.826-12.886c3.343-0.762,7.333-0.795,10.329,1.151c0.68,0.442,1.273,0.958,1.833,1.502
	c-0.27-0.948-0.537-1.896-0.806-2.843c-0.401-1.413-0.802-2.826-1.201-4.238c-3.131-11.068-6.184-22.143-8.944-33.334
	c-4.344-1.173-8.66-2.416-12.783-4.126c-2.5,6.159-11.502,6.626-17.093,6.456c-5.586-0.171-15.26-1.18-18.478-6.646
	c-0.007-0.012-0.009-0.023-0.016-0.035c-0.105,0.001-0.203-0.003-0.293-0.013C117.716,217.604,116.729,218.205,115.717,218.777z
	 M99.524,299.451c0-0.01,0-0.02,0.001-0.029c0.004-0.251,0.302-0.459,0.705-0.614c0.442-7.984,4.29-15.31,3.962-23.384
	c-0.035-0.857,2.875-1.347,2.897-0.777c0.337,8.299-3.731,15.769-4,24c-0.009,0.278-0.297,0.509-0.689,0.678
	c-0.083,2.69-0.391,5.441-0.702,8.209c25.409-20.229,4.235-57.148,3.177-83.628c-10.262,4.33-20.801,8.345-26.872,17.896
	C69.68,254.899,69.915,271,63.23,284.734c2.104,2.218,4.451,4.275,6.943,6.152c0.834-0.198,1.727-0.045,1.589,0.658
	c-0.028,0.143-0.056,0.289-0.084,0.433c2.29,1.622,4.672,3.103,7.082,4.405C84.396,299.429,93.708,304.263,99.524,299.451z
	 M179.293,385.225c-0.004,0.002-0.004,0.002-0.008,0.003c0.001,0.001,0.003,0.001,0.004,0.001
	C179.291,385.227,179.29,385.227,179.293,385.225z M180.409,384.385c0.219-0.215,0.433-0.442,0.625-0.674
	c0.682-0.824,1.242-1.742,1.678-2.721c0.678-1.52,1.459-3.711,0.668-5.338c-0.146-0.301-0.35-0.557-0.641-0.732
	c-0.229-0.139-0.643-0.199-0.591-0.201c-0.354,0.01-0.483,0.027-1.018,0.24c-0.686,0.273-1.333,0.631-1.97,1.002
	c-0.434,0.252-1.089,0.43-1.649,0.395c-0.291,1.679-1.34,3.32-2.54,4.654c0.379-0.01,0.688,0.072,0.784,0.303
	c0.524,1.256,1.192,2.621,2.342,3.426c0.017,0.012,0.038,0.023,0.056,0.035c0.316,0.211,0.739,0.412,0.992,0.438
	c0.054,0.006,0.09,0.01,0.119,0.014c0.086-0.045,0.267-0.132,0.25-0.121c0.207-0.135,0.408-0.278,0.598-0.438
	C180.213,384.582,180.311,384.48,180.409,384.385z M194.091,380.191c-0.17,1.142-0.582,2.162-1.167,3.029
	c1.038,0.039,2.075,0.073,3.113,0.105c1.872-1.57,2.339-4.656,1.683-7.237c-1.328,0.427-2.627,0.902-3.858,1.566
	C194.144,378.447,194.221,379.32,194.091,380.191z M190.101,377.195c-1.085-0.725-2.379-0.477-3.561-0.094
	c-0.153,1.884-0.965,3.768-1.997,5.298c-0.133,0.198-0.277,0.389-0.42,0.579c1.966,0.019,3.931,0.072,5.896,0.141
	c0.667-0.748,1.086-1.791,1.167-2.908C191.263,379.16,191.054,377.831,190.101,377.195z M223.831,375.546
	c-3.063-0.644-5.931-1.896-8.208-3.962c-0.466-0.424,0.507-0.978,0.796-1.077c0.494-0.171,0.98-0.308,1.465-0.421
	c-3.42-0.895-6.681-2.377-9.607-4.551c-0.092-0.065-0.114-0.149-0.067-0.252c0.395-0.988,0.946-1.499,1.646-2.013
	c-0.421-0.052-0.84-0.109-1.253-0.182c-2.482-0.435-10.598-3.653-6.677-7.456c3.584-3.475,10.347-3.458,14.965-3.637
	c1.847-0.072,3.691-0.084,5.535-0.079c-4.848-3.569-19.175-12.418-13.074-17.175c3.707-2.89,8.775-1.627,13.441,0.762
	c-0.504-10.033,0.013-20.183-1.935-30.082c-0.027-0.138,0.077-0.274,0.254-0.402c-0.08-0.051-0.146-0.115-0.2-0.19
	c-1.253,0-2.507,0-3.76,0c-0.756,0.396-1.978,0.503-2.238,0c-34.163,0-68.326,0-102.488,0c0.002,0.026,0.01,0.048,0.01,0.075
	c0.022,10.629,0.412,21.25,0.579,31.876c0.131,8.333-0.391,16.896,0.941,25.156c1.099,6.815,3.999,18.061,11.86,20.087
	c5.56,1.432,11.411,0.584,17.019,1.562c0.246-0.167,0.56-0.277,0.933-0.277c4.87,0,9.74,0,14.61,0
	c0.132-0.146,0.333-0.286,0.634-0.407c4.026-1.616,11.902-17.145,17.46-10.459c0.773,0.93,1.092,1.926,1.11,2.929
	c1.474-0.851,3.095-1.614,4.792-1.86c1.701-0.246,3.381,0.111,3.964,1.6c1.959-0.564,4.353-0.813,6.005,0.453
	c0.333,0.255,0.616,0.55,0.856,0.87c1.8-0.833,3.717-1.382,5.611-1.997c0.358-0.117,1.43-0.312,1.609,0.211
	c1.251,3.646,0.201,6.744-2.054,8.741c1.681,0.036,3.363,0.05,5.045,0.029c0.041-0.277,0.068-0.562,0.12-0.833
	c0.165-0.857,3.06-1.36,2.88-0.43c-0.076,0.394-0.12,0.803-0.173,1.209c5.612-0.106,17.313-0.19,17.284-7.273
	C223.523,375.885,223.644,375.703,223.831,375.546z M245.071,369.38c-0.709-9.6-4.054-21.498-13.233-26.246
	c-0.29-0.149-0.382-0.332-0.351-0.52c-0.679,0.296-1.548,0.503-1.88,0.243c-2.812-2.202-5.893-4.175-9.078-5.788
	c-1.962-0.995-11.349-5.329-9.471,0.619c2.112,6.69,10.511,9.735,15.281,14.188c0.025,0.023,0.037,0.049,0.042,0.076
	c2.593,0.043,5.187,0.105,7.784,0.122c1.962,0.013,0.214,1.929-1.053,1.92c-8.535-0.056-18.071-1.397-26.356,1.133
	c-1.669,0.511-3.691,1.504-2.177,3.456c1.918,2.475,5.377,2.836,8.309,2.816c5.859-0.039,11.948-1.131,17.47-3.115
	c1.422-0.511,3.114,0.822,1.228,1.5c-5.738,2.063-12.73,3.858-19.147,3.673c-1.759,2.854,5.147,4.865,7.587,5.449
	c4.916,1.177,9.857,1.427,14.819,0.321c1.697-0.379,1.975,0.563,0.254,0.945c-4.126,0.92-8.422,1.221-12.602,0.758
	c-0.274,0.117-0.55,0.195-0.771,0.197c-0.835-0.037-1.665,0.007-2.489,0.114c4.805,3.628,11.962,3.979,17.56,2.469
	c1.725-0.466,2.075,0.845,0.351,1.311c-3.295,0.89-7.085,1.287-10.752,0.919c-0.043,0.523-0.148,1.012-0.299,1.473
	c0.554,0.023,1.011,0.262,1,0.806c-0.079,3.84,8.726,3.097,10.8,2.478C243.486,379.029,245.474,374.831,245.071,369.38z
	 M171.511,416.502c-3.213,9.831-11.87,16.344-16.848,25.184c-5.528,9.815-7.623,23.096-8.485,34.15
	c-0.11,1.409,2.83,0.936,2.924-0.266c0.929-11.92,3.383-25.759,9.736-36.059c4.999-8.105,12.555-13.967,15.597-23.275
	C174.84,414.996,171.888,415.35,171.511,416.502z M534.197,315.504c-0.147,0-0.294,0-0.441,0c0,55.049,0,110.097,0,165.145
	c0,1.085-2.898,1.616-2.898,0.777c0-55.308,0-110.615,0-165.922c-35.256,0-70.513,0-105.77,0c0,55.049,0,110.097,0,165.145
	c0,1.085-2.898,1.616-2.898,0.777c0-27.13,0-54.26,0-81.389c-0.192,0.081-0.41,0.133-0.658,0.133c-49.694,0-99.391,0-149.085,0
	c0,26.259,0,52.519,0,78.776c0,1.405-2.946,1.78-2.946,0.182c0-26.667,0-53.334,0-80c0-0.982,1.438-1.458,2.304-1.111
	c0.181-0.069,0.385-0.112,0.613-0.112c6.311,0,12.621,0,18.932,0c-6.186-2.57-10.864-7.71-12.066-15.445
	c-0.171-1.103,1.497-1.79,2.381-1.419c1.109-0.122,2.33-0.028,3.395,0.013c-0.026-0.021-0.056-0.039-0.08-0.064
	c-11.504-12.249-1.418-25.987,11.539-27.83c-8.476-6.385-6.535-18.42,1.064-25.375c3.644-3.336,8.298-4.893,12.982-4.916
	c-5.055-5.256-5.102-13.131-0.796-19.76c4.798-7.387,14.917-11.155,23.358-8.403c2.886,0.94,5.529,2.571,7.697,4.675
	c7.766-6.475,20.376-7.496,27.758,0.359c6.475,6.892,7.637,17.238,0.948,23.459c2.834,0.524,5.537,1.673,7.877,3.535
	c0.125-0.171,0.336-0.339,0.661-0.488c7.637-3.502,17.409-2.79,23.417,3.618c6.485,6.918,5.299,15.593-0.926,22.22
	c-0.832,0.886-3.636,0.554-2.4-0.762c5.166-5.501,7.009-13.448,1.396-19.436c-5.304-5.658-13.151-7.308-20.236-4.059
	c-0.173,0.079-0.349,0.127-0.521,0.151c0.148,0.146,0.309,0.274,0.453,0.428c6.514,6.931,7.647,17.358,0.826,23.567
	c2.635,0.566,5.142,1.685,7.33,3.427c0.125-0.171,0.336-0.34,0.662-0.489c7.637-3.502,17.409-2.79,23.417,3.618
	c6.485,6.918,5.299,15.593-0.926,22.22c-0.832,0.886-3.636,0.554-2.4-0.762c5.166-5.501,7.009-13.448,1.396-19.436
	c-5.304-5.658-13.151-7.308-20.236-4.059c-0.174,0.08-0.35,0.127-0.521,0.151c0.148,0.147,0.309,0.274,0.453,0.429
	c7.084,7.541,7.807,19.217-1.157,25.099c4.931,0.028,9.862,0.051,14.794-0.003c1.578-0.018,3.158-0.027,4.735-0.096
	c0.797-0.035,1.177-0.127,1.312-0.172c-0.123,0.063-0.41,0.26-0.649,0.734c0.229-0.453,1.054-0.746,1.751-0.77
	c0.564-1.096,3.053-1.287,2.836,0.106c-1.242,7.997-6.096,13.308-12.513,15.933c7.132,0,14.263,0,21.394,0
	c0.166,0,0.308,0.021,0.439,0.051c0-27.483,0-54.968,0-82.451c-0.22,0-0.438,0-0.658,0c-1.96,0-1.489-2.266,0.219-2.266
	c7.922,0,15.845,0,23.768,0c-0.985-0.295-1.966-0.657-2.936-1.11c-13.351-6.233-17.786-24.072-13.924-37.403
	c1.94-6.695,5.751-12.291,11.737-15.93c-0.453,0.025-0.874-0.105-1.082-0.459c-5.007-8.518-7.79-18.1-13-26.5
	c-0.389-0.627,0.137-1.201,0.688-1.482c2.973-1.521,7.5,5.949,8.896,7.577c1.903,2.22,3.794,4.478,5.714,6.715
	c0.857-8.439,3.019-16.71,3.172-25.229c0.016-0.868,1.311-1.214,1.971-1.158c2.711,0.229,2.754,10.544,2.997,12.337
	c0.57,4.203,1.093,8.45,1.776,12.664c0.88-5.603,1.17-11.305,1.606-16.951c0.091-1.175,0.226-7.424,3.293-5.336
	c1.805,1.229,1.976,8.029,2.361,9.947c0.556,2.759,1.104,5.521,1.734,8.264c0.112,0.487,0.313,2.145,0.625,3.359
	c2.89-3.694,5.853-7.418,9.206-10.609c2.107-2.006,4.896-2.057,3.374,1.5c-3.453,8.069-8.321,15.641-12.892,23.119
	c0.169,0.109,0.109,0.32-0.086,0.544c7.906,3.181,13.324,10.033,15.825,17.937c0.029-0.102,0.054-0.207,0.083-0.309
	c1.94-6.695,5.751-12.291,11.737-15.93c-0.453,0.025-0.874-0.105-1.082-0.459c-5.007-8.518-7.79-18.1-13-26.5
	c-0.389-0.627,0.137-1.201,0.688-1.482c2.973-1.521,7.5,5.949,8.896,7.577c1.903,2.22,3.794,4.478,5.714,6.715
	c0.857-8.439,3.019-16.71,3.172-25.229c0.016-0.868,1.311-1.214,1.971-1.158c2.711,0.229,2.754,10.544,2.997,12.337
	c0.57,4.203,1.093,8.45,1.776,12.664c0.88-5.603,1.17-11.305,1.606-16.951c0.091-1.175,0.226-7.424,3.293-5.336
	c1.805,1.229,1.976,8.029,2.361,9.947c0.556,2.759,1.104,5.521,1.734,8.264c0.112,0.487,0.313,2.145,0.625,3.359
	c2.89-3.694,5.853-7.418,9.206-10.609c2.107-2.006,4.896-2.057,3.374,1.5c-3.453,8.069-8.321,15.641-12.892,23.119
	c0.169,0.109,0.109,0.32-0.086,0.544c14.454,5.815,20.605,23.911,15.791,38.233c-2.828,8.414-10.204,15.495-18.732,17.908
	c9.536,0,19.071,0,28.607,0C536.376,313.238,535.905,315.504,534.197,315.504z M521.113,231.763
	C521.315,231.65,521.34,231.576,521.113,231.763L521.113,231.763z M473.113,231.763C473.315,231.65,473.34,231.576,473.113,231.763
	L473.113,231.763z M377.747,353.728c-0.261,0.163-0.526,0.323-0.804,0.476c-0.94,0.519-3.143,0.034-2.162-0.782
	c-4.16-0.077-8.363,1.4-11.838,4.651c-0.031,0.029-0.071,0.055-0.109,0.082c2.563,3.035,4.2,6.822,4.325,10.923
	c0.205,6.668-3.623,11.407-9.872,12.8c9.143,0.113,18.286,0.21,27.43,0.269c0.092-0.09,0.214-0.183,0.391-0.28
	c8.004-4.418,8.769-14.795,3.192-21.642C385.463,356.74,381.712,354.52,377.747,353.728z M356.438,379.98
	c6.631-1.016,8.96-7.646,7.31-13.593c-1.574-5.675-5.753-10.846-11.632-12.405c-8.083-2.143-17.04,1.65-20.468,9.485
	c-3.123,7.141-1.207,14.267,5.777,18.065c0.055,0.029,0.093,0.063,0.136,0.094c1.673,0.022,3.347,0.045,5.02,0.066
	c4.175,0.055,8.35,0.104,12.524,0.156C354.657,381.316,355.304,380.154,356.438,379.98z M306.016,361.781
	c-3.736,7.058-2.84,15.215,4.213,19.498c7.505,0.091,15.01,0.184,22.515,0.284c-6.519-5.178-7.008-13.89-2.311-21.122
	c0.538-0.829,1.153-1.605,1.815-2.339c-1.744-1.559-3.74-2.731-5.855-3.511c-0.434,0.111-0.879,0.119-1.201-0.057
	c-0.355-0.193-0.679-0.408-1.01-0.618C317.288,352.319,309.733,354.759,306.016,361.781z M326.571,352.354
	c2.748,0.778,5.345,2.095,7.583,3.909c3.601-3.054,8.283-4.908,13.004-5.104c6.069-1.376,8.178-7.718,6.59-13.438
	c-1.574-5.675-5.753-10.845-11.632-12.404c-8.083-2.143-17.04,1.649-20.468,9.484C318.658,341.637,320.301,348.451,326.571,352.354z
	 M367.211,324.98c-0.301,0.191-0.613,0.377-0.936,0.555c-0.942,0.52-3.15,0.032-2.158-0.787c-3.94,0.087-7.884,1.58-11.174,4.658
	c-0.031,0.029-0.071,0.055-0.109,0.082c2.563,3.033,4.2,6.821,4.325,10.921c0.152,4.954-1.926,8.838-5.563,11.082
	c0.739,0.142,1.475,0.313,2.194,0.547c2.886,0.94,5.529,2.57,7.698,4.675c4.37-3.644,10.264-5.554,15.912-5.128
	c5.783-4.985,5.88-13.909,0.898-20.029C375.336,327.915,371.372,325.672,367.211,324.98z M342.168,300.82
	c2.562,3.035,4.199,6.823,4.324,10.923c0.15,4.884-1.863,8.732-5.405,10.991c0.913,0.148,1.819,0.35,2.704,0.638
	c2.886,0.94,5.529,2.57,7.698,4.675c4.214-3.514,9.844-5.43,15.306-5.181c5.725-4.995,5.803-13.88,0.837-19.977
	c-6.468-7.942-17.685-9.327-25.354-2.151C342.246,300.768,342.206,300.794,342.168,300.82z M315.42,323.384
	c3.172,0.715,6.186,2.146,8.734,4.213c3.334-2.827,7.595-4.616,11.957-5.022c6.363-1.191,8.591-7.681,6.971-13.521
	c-1.575-5.675-5.753-10.846-11.633-12.405c-8.082-2.143-17.039,1.65-20.467,9.485C308.07,312.793,309.544,319.437,315.42,323.384z
	 M300.784,352.958c0.029,0.017,0.047,0.034,0.072,0.052c2.331,0.161,4.687,0.715,6.969,1.762c0.647,0.297,0.697,0.724,0.456,1.104
	c3.71-3.074,8.329-4.465,12.945-4.344c-5.053-5.257-5.099-13.13-0.794-19.758c0.538-0.829,1.152-1.604,1.815-2.338
	c-1.827-1.634-3.93-2.853-6.157-3.63c-0.534,0.215-1.151,0.285-1.565,0.061c-0.458-0.249-0.883-0.52-1.299-0.795
	c-6.627-1.169-13.664,1.342-17.211,8.041C292.18,340.359,293.206,348.775,300.784,352.958z M287.64,379.746
	c0.466,0.496,0.026,1.026-0.639,1.326c4.136,0.001,8.271,0.037,12.407,0.079c2.12,0.021,4.24,0.052,6.36,0.075
	c-7.588-6.498-5.562-17.975,1.76-24.725c-0.456,0.224-0.997,0.314-1.4,0.129c-7.034-3.225-16.036-2.152-20.819,4.5
	C280.755,367.463,282.593,374.372,287.64,379.746z M409.622,383.662c-1.33,0.342-3.179,0.185-4.007,0.206
	c-4.252,0.109-8.509,0.102-12.762,0.093c-14.462-0.031-28.924-0.217-43.385-0.399c-13.177-0.166-26.354-0.349-39.531-0.508
	c-0.524,0.184-1.099,0.243-1.437,0.057c-0.044-0.024-0.085-0.052-0.128-0.076c-1.589-0.019-3.178-0.042-4.766-0.06
	c-5.426-0.062-10.852-0.124-16.278-0.139c-1.583-0.004-3.167-0.01-4.75,0.011c-0.048,0.001-0.103,0.003-0.159,0.007
	c2.264,10.729,11.723,15.71,22.428,14.614c0.65-0.066,1.02,0.134,1.172,0.437c26.855,0,53.712,0,80.567,0
	c0.359-0.284,0.83-0.473,1.303-0.425C398.161,398.531,407.29,393.838,409.622,383.662z M522.235,293.693
	c-0.161-0.001-0.313-0.027-0.449-0.084c-1.893-0.801-3.765-1.685-5.614-2.629c-2.461,2.334-5.139,4.422-7.657,6.248
	c-2.334,1.692-4.762,3.301-7.28,4.744c3.91,2.428,8.097,4.396,12.57,5.389C517.823,303.913,520.855,299.045,522.235,293.693z
	 M500.173,301.299c3.292-1.951,6.386-4.239,9.188-6.604c1.703-1.438,3.466-2.964,5.122-4.607c-5.042-2.699-9.894-5.844-14.464-9.158
	c-4.45,3.146-9.098,6.172-13.934,8.789c2.45,2.625,5.205,4.984,7.83,7.055C495.916,298.352,498.002,299.89,500.173,301.299z
	 M490.121,296.871c-2.126-1.805-4.355-3.768-6.417-5.905c-1.416,0.715-2.847,1.391-4.293,2.02
	c1.231,5.172,3.584,10.005,7.248,13.601c3.858-0.68,7.62-2.113,11.186-3.99C495.107,300.864,492.521,298.906,490.121,296.871z
	 M522.943,282.445c-1.277,2.416-3.012,4.66-4.97,6.73c1.561,0.813,3.145,1.564,4.746,2.266c0.071-0.432,0.135-0.865,0.185-1.302
	C523.193,287.595,523.204,285.004,522.943,282.445z M515.934,265.25c-2.166,5.799-8.84,10.647-13.68,14.095
	c0.172,0.119,0.35,0.243,0.515,0.358c4.309,3.019,8.802,5.977,13.475,8.539c2.097-2.339,3.889-4.912,4.966-7.796
	c0.125-0.332,0.729-0.579,1.351-0.704C521.59,274.376,519.379,269.291,515.934,265.25z M506.43,258.371
	c-4.112,5.082-9.002,9.285-14.321,12.949c2.638,2.69,5.873,5.039,8.632,6.968c5.365-3.813,12.263-9.071,12.944-15.37
	C511.608,261.031,509.188,259.48,506.43,258.371z M507.766,247.574c-1.539,1.966-3.078,3.937-4.542,5.96
	c-0.494,0.683-2.185,2.376-2.134,3.276c0.002,0.03-0.008,0.059-0.012,0.088c0.018,0.099,0.018,0.196-0.006,0.291
	c1.308-0.047,2.617-0.108,3.91-0.231c0.098-0.13,0.199-0.254,0.296-0.385c0.176-0.239,0.722-0.442,1.28-0.552
	c3.787-6.207,7.592-12.461,10.818-18.974c0.157-0.317,0.862-1.597,1.406-2.826c-0.008,0.01-0.017,0.019-0.025,0.028
	c-2.957,3.356-5.812,6.808-8.604,10.306c-0.051,0.219-0.237,0.435-0.49,0.62C509.029,245.974,508.395,246.771,507.766,247.574z
	 M500.821,250.061c0.185,0.823,0.384,1.644,0.592,2.461c1.593-2.143,3.222-4.26,4.884-6.348c0.267-0.334,0.532-0.674,0.798-1.012
	c-1.42-1.582-1.702-6.209-2.038-7.799c-0.46-2.174-0.893-4.354-1.326-6.534c-0.465,6.296-0.988,12.643-2.623,18.758
	C501.061,249.764,500.957,249.921,500.821,250.061z M492.287,247.715c2.106,2.373,4.275,4.686,6.558,6.868
	c-0.003-0.009-0.009-0.015-0.011-0.024c-1.861-6.814-2.718-13.914-3.67-20.899c-0.165-1.212-0.326-2.425-0.488-3.638
	C493.786,235.905,492.612,241.755,492.287,247.715z M489.968,257.063c0.227,0.386,0.14,0.75-0.104,1.046
	c2.152-0.706,4.933-0.597,6.971-0.734c0.305-0.021,0.614-0.036,0.922-0.052c-2.615-2.408-5.069-4.995-7.445-7.652
	c-0.563-0.048-1.027-0.336-1.002-0.942c0.002-0.059,0.008-0.116,0.01-0.175c-1.425-1.616-2.829-3.248-4.23-4.873
	c-1.1-1.276-2.193-2.559-3.29-3.838C484.429,245.624,486.734,251.563,489.968,257.063z M486.836,261.879
	c0.138,0.102,0.234,0.24,0.254,0.432c0.297,2.854,1.873,5.51,4.006,7.922c4.771-3.416,9.15-7.311,12.878-11.963
	c-1.31,0.086-2.625,0.125-3.911,0.203c-3.22,0.194-8.257-0.389-10.983,1.556C488.283,260.596,487.545,261.224,486.836,261.879z
	 M478.809,277.761c0.004-0.002,0.007-0.005,0.012-0.007c3.432-1.839,6.78-3.796,9.981-5.937c-2.073-2.229-3.725-4.683-4.37-7.343
	c-2.674,3.34-4.48,7.354-5.338,11.604C478.982,276.629,478.896,277.195,478.809,277.761z M478.572,279.638
	c0.503-0.082,0.933-0.057,1.018,0.173c1.161,3.137,3.098,6.033,5.389,8.678c4.613-2.518,9.058-5.42,13.264-8.43
	c0.092-0.066,0.194-0.138,0.289-0.205c-2.686-1.941-5.965-4.291-8.72-7.001c-2.998,1.94-6.11,3.734-9.28,5.433
	c-0.394,0.211-1.295,0.305-1.837,0.219C478.645,278.878,478.611,279.259,478.572,279.638z M478.36,284.098
	c0.018,2.434,0.253,4.901,0.722,7.326c1.173-0.527,2.338-1.079,3.493-1.666C480.979,287.99,479.526,286.107,478.36,284.098z
	 M474.943,282.445c-1.277,2.416-3.012,4.66-4.97,6.73c1.561,0.813,3.145,1.564,4.746,2.266c0.071-0.432,0.135-0.865,0.185-1.302
	C475.193,287.595,475.204,285.004,474.943,282.445z M453.234,301.973c3.91,2.428,8.097,4.396,12.57,5.389
	c4.019-3.448,7.051-8.316,8.431-13.668c-0.161-0.001-0.313-0.027-0.449-0.084c-1.893-0.801-3.765-1.685-5.614-2.629
	c-2.461,2.334-5.139,4.422-7.657,6.248C458.181,298.921,455.753,300.529,453.234,301.973z M461.361,294.695
	c1.703-1.438,3.466-2.964,5.122-4.607c-5.042-2.699-9.894-5.844-14.464-9.158c-4.45,3.146-9.098,6.172-13.934,8.789
	c2.45,2.625,5.205,4.984,7.83,7.055c2,1.578,4.086,3.116,6.257,4.525C455.465,299.348,458.559,297.06,461.361,294.695z
	 M467.934,265.25c-2.166,5.799-8.84,10.647-13.68,14.095c0.172,0.119,0.35,0.243,0.515,0.358c4.309,3.019,8.802,5.977,13.475,8.539
	c2.097-2.339,3.889-4.912,4.966-7.796c0.125-0.332,0.729-0.579,1.351-0.704C473.59,274.376,471.379,269.291,467.934,265.25z
	 M458.43,258.371c-4.112,5.082-9.002,9.285-14.321,12.949c2.638,2.69,5.873,5.039,8.632,6.968
	c5.365-3.813,12.263-9.071,12.944-15.37C463.608,261.031,461.188,259.48,458.43,258.371z M459.766,247.574
	c-1.539,1.966-3.078,3.937-4.542,5.96c-0.494,0.683-2.185,2.376-2.134,3.276c0.002,0.03-0.008,0.059-0.012,0.088
	c0.018,0.099,0.018,0.196-0.006,0.291c1.308-0.047,2.617-0.108,3.91-0.231c0.098-0.13,0.199-0.254,0.296-0.385
	c0.176-0.239,0.722-0.442,1.28-0.552c3.787-6.207,7.592-12.461,10.818-18.974c0.157-0.317,0.862-1.597,1.406-2.826
	c-0.008,0.01-0.017,0.019-0.025,0.028c-2.957,3.356-5.812,6.808-8.604,10.306c-0.051,0.219-0.237,0.435-0.49,0.62
	C461.029,245.974,460.395,246.771,459.766,247.574z M452.821,250.061c0.185,0.823,0.384,1.644,0.592,2.461
	c1.593-2.143,3.222-4.26,4.884-6.348c0.267-0.334,0.532-0.674,0.798-1.012c-1.42-1.582-1.702-6.209-2.038-7.799
	c-0.46-2.174-0.893-4.354-1.326-6.534c-0.465,6.296-0.988,12.643-2.623,18.758C453.061,249.764,452.957,249.921,452.821,250.061z
	 M444.287,247.715c2.106,2.373,4.275,4.686,6.558,6.868c-0.003-0.009-0.009-0.015-0.011-0.024
	c-1.861-6.814-2.718-13.914-3.67-20.899c-0.165-1.212-0.326-2.425-0.488-3.638C445.786,235.905,444.612,241.755,444.287,247.715z
	 M441.968,257.063c0.227,0.386,0.14,0.75-0.104,1.046c2.152-0.706,4.933-0.597,6.971-0.734c0.305-0.021,0.614-0.036,0.922-0.052
	c-2.615-2.408-5.069-4.995-7.445-7.652c-0.563-0.048-1.027-0.336-1.002-0.942c0.002-0.059,0.008-0.116,0.01-0.175
	c-1.425-1.616-2.829-3.248-4.23-4.873c-1.1-1.276-2.193-2.559-3.29-3.838C436.429,245.624,438.734,251.563,441.968,257.063z
	 M438.836,261.879c0.138,0.102,0.234,0.24,0.254,0.432c0.297,2.854,1.873,5.51,4.006,7.922c4.771-3.416,9.15-7.311,12.878-11.963
	c-1.31,0.086-2.625,0.125-3.911,0.203c-3.22,0.194-8.257-0.389-10.983,1.556C440.283,260.596,439.545,261.224,438.836,261.879z
	 M430.809,277.761c0.004-0.002,0.007-0.005,0.012-0.007c3.432-1.839,6.78-3.796,9.981-5.937c-2.073-2.229-3.725-4.683-4.37-7.343
	c-2.674,3.34-4.48,7.354-5.338,11.604C430.982,276.629,430.896,277.195,430.809,277.761z M430.572,279.638
	c0.503-0.082,0.933-0.057,1.018,0.173c1.161,3.137,3.098,6.033,5.389,8.678c4.613-2.518,9.058-5.42,13.264-8.43
	c0.092-0.066,0.194-0.138,0.289-0.205c-2.686-1.941-5.965-4.291-8.72-7.001c-2.998,1.94-6.11,3.734-9.28,5.433
	c-0.394,0.211-1.295,0.305-1.837,0.219C430.645,278.878,430.611,279.259,430.572,279.638z M431.082,291.424
	c1.173-0.527,2.338-1.079,3.493-1.666c-1.596-1.768-3.049-3.65-4.215-5.66C430.378,286.531,430.613,288.999,431.082,291.424z
	 M438.659,306.586c3.858-0.68,7.62-2.113,11.186-3.99c-2.737-1.731-5.324-3.689-7.724-5.725c-2.126-1.805-4.355-3.768-6.417-5.905
	c-1.416,0.715-2.847,1.391-4.293,2.02C432.643,298.157,434.995,302.99,438.659,306.586z M464.229,308.598
	c-4.689-0.9-9.172-2.849-13.326-5.352c-3.591,1.857-7.362,3.334-11.319,4.188c0.998,0.871,2.064,1.674,3.242,2.354
	C450.475,314.202,458.236,312.925,464.229,308.598z M493.518,313.238c-0.985-0.295-1.966-0.657-2.936-1.11
	c-7.12-3.324-11.702-9.949-13.845-17.431c-0.065,0.211-0.126,0.424-0.196,0.633c-2.828,8.414-10.204,15.495-18.732,17.908
	C469.711,313.238,481.614,313.238,493.518,313.238z M512.229,308.598c-4.689-0.9-9.172-2.849-13.326-5.352
	c-3.591,1.857-7.362,3.334-11.319,4.188c0.998,0.871,2.064,1.674,3.242,2.354C498.475,314.202,506.236,312.925,512.229,308.598z" fill="#282828"></path>
</svg>