<svg width="27" height="27" viewBox="0 0 27 27" fill="none" xmlns="http://www.w3.org/2000/svg">
<path d="M2.64267 11.8399C2.53301 11.4308 2.53299 11 2.64262 10.5908C2.75225 10.1816 2.96766 9.80855 3.2672 9.50904L9.5089 3.26734C9.80841 2.9678 10.1815 2.75239 10.5907 2.64276C10.9998 2.53313 11.4306 2.53315 11.8398 2.64281L17.6804 4.20781C17.7412 3.40766 18.0198 2.63938 18.486 1.9862L11.4513 0.101458C10.9464 -0.0338223 10.4148 -0.0338196 9.90987 0.101467C9.40494 0.236755 8.94452 0.50256 8.57488 0.87217L0.872168 8.57487C0.502558 8.94453 0.236754 9.40493 0.101467 9.90986C-0.0338195 10.4148 -0.0338224 10.9464 0.101458 11.4513L2.0587 18.7558C2.69853 18.2672 3.46029 17.9637 4.26083 17.8786L2.64267 11.8399Z" fill="#282828"/>
<path d="M22.6853 8.91952L24.3575 15.16C24.4672 15.5693 24.4671 16 24.3575 16.4091C24.2478 16.8183 24.0324 17.1914 23.7328 17.4909L17.4911 23.7328C17.1916 24.0323 16.8186 24.2476 16.4093 24.3573C16.0003 24.4669 15.5694 24.4669 15.1603 24.3573L9.12158 22.7391C9.03649 23.5397 8.73306 24.3015 8.24438 24.9413L15.5488 26.8985C16.0537 27.0338 16.5854 27.0338 17.0903 26.8985C17.5953 26.7632 18.0556 26.4975 18.4253 26.1278L26.128 18.4251C26.4977 18.0554 26.7634 17.5951 26.8987 17.09C27.0341 16.5852 27.0341 16.0535 26.8987 15.5486L24.8677 7.9707C24.2414 8.48189 23.4862 8.81022 22.6853 8.91952Z" fill="#282828"/>
<path d="M2.23428 19.7632C1.73959 20.2579 1.4027 20.8882 1.26621 21.5743C1.12973 22.2605 1.19977 22.9717 1.4675 23.6181C1.73521 24.2643 2.18858 24.8168 2.77026 25.2055C3.35196 25.5941 4.03583 25.8016 4.73543 25.8016C5.43501 25.8016 6.1189 25.5941 6.70058 25.2055C7.28227 24.8168 7.73565 24.2643 8.00336 23.6181C8.27109 22.9717 8.34113 22.2605 8.20464 21.5743C8.06816 20.8882 7.73127 20.2579 7.23658 19.7632C6.57271 19.1009 5.67321 18.7289 4.73543 18.7289C3.79764 18.7289 2.89814 19.1009 2.23428 19.7632Z" fill="#42D110"/>
<path d="M19.5802 2.05194C19.0856 2.54662 18.7485 3.17688 18.6122 3.86303C18.4757 4.54917 18.5457 5.26039 18.8134 5.90673C19.0812 6.55306 19.5345 7.10551 20.1161 7.49417C20.6979 7.88285 21.3817 8.09031 22.0813 8.09031C22.7809 8.09031 23.4648 7.88285 24.0466 7.49417C24.6282 7.10551 25.0815 6.55306 25.3492 5.90673C25.617 5.26039 25.687 4.54917 25.5505 3.86303C25.4141 3.17688 25.0771 2.54662 24.5825 2.05194C23.9187 1.38957 23.0191 1.01758 22.0813 1.01758C21.1436 1.01758 20.244 1.38957 19.5802 2.05194Z" fill="#42D110"/>
<path d="M15.5764 22.8762C15.4343 22.8762 15.293 22.8576 15.1557 22.8209L9.62805 21.3396C9.44374 20.3554 8.96622 19.4498 8.25816 18.7418C7.55008 18.0337 6.64452 17.5561 5.66026 17.3718L4.17918 11.8446C4.10576 11.5689 4.10596 11.2788 4.17981 11.0032C4.25366 10.7276 4.39854 10.4762 4.59998 10.2742L10.2735 4.6005C10.4753 4.39867 10.7267 4.25353 11.0024 4.17965C11.2781 4.10579 11.5684 4.10581 11.8441 4.1797L17.2168 5.61932C17.4299 6.59749 17.9335 7.48848 18.6616 8.1756C19.3896 8.86271 20.3083 9.31391 21.2971 9.47009L22.8203 15.1562C22.8937 15.432 22.8936 15.7222 22.8196 15.9977C22.7458 16.2733 22.6009 16.5247 22.3994 16.7268L16.7258 22.4004C16.5753 22.5517 16.396 22.6718 16.1987 22.7533C16.0014 22.8351 15.7899 22.8768 15.5764 22.8762Z" fill="#42D110"/>
</svg>
